# Object Export From Tinkercad Server 2015

mtllib obj.mtl

o obj_0
v 1.1828 		-17.0489 		11.9656
v 1.1828 		-17.0489 		11.9656
v 1.345 		-17.33 		11.748
v 1.2694 		-16.9819 		11.9707
v 1.4272 		-16.8599 		11.9796
v 1.638 		-17.134 		11.748
v 1.1838 		-17.048 		11.9657
v 1.6733 		-16.6733 		11.9654
v 1.5101 		-16.7971 		11.9747
v 1.6734 		-16.6731 		11.9654
v 1.903 		-16.902 		11.748
v 1.7394 		-16.5861 		11.9707
v 1.86 		-16.4271 		11.9798
v 1.6741 		-16.6722 		11.9655
v 0.1082 		-17.3509 		11.9707
v 0.3063 		-17.3241 		11.9799
v 0 		-17.3655 		11.9657
v 0.0013 		-17.3654 		11.9657
v 0.4089 		-17.3112 		11.9751
v 0.6124 		-17.2857 		11.965
v 0.6124 		-17.2857 		11.965
v 0.6136 		-17.2852 		11.965
v 0.7138 		-17.243 		11.9703
v 0.8973 		-17.1658 		11.9802
v 0.9928 		-17.1267 		11.9753
v 0.351 		-17.667 		11.748
v 0 		-17.69 		11.748
v 0.696 		-17.599 		11.748
v 1.03 		-17.486 		11.748
v 0 		-18.125 		11.367
v 0.408 		-18.098 		11.367
v 0.809 		-18.019 		11.367
v 1.196 		-17.887 		11.367
v 1.563 		-17.706 		11.367
v 1.903 		-17.479 		11.367
v 0.908 		-18.387 		10.933
v 1.342 		-18.239 		10.933
v 1.753 		-18.037 		10.933
v 1.914 		-18.315 		10.452
v 0.458 		-18.476 		10.933
v 0 		-18.506 		10.933
v 0.5 		-18.795 		10.452
v 0 		-18.827 		10.452
v 0.991 		-18.697 		10.452
v 1.465 		-18.536 		10.452
v 3.536 		-17.042 		9.933
v 3.773 		-16.563 		9.933
v 3.697 		-17.134 		9.386
v 3.944 		-16.634 		9.386
v 2.486 		-18.239 		9.933
v 2.887 		-17.887 		9.933
v 3.24 		-17.486 		9.933
v 2.599 		-18.387 		9.386
v 3.019 		-18.019 		9.386
v 3.387 		-17.599 		9.386
v -3.035 		-16.258 		21.364
v 0 		-14.4035 		3.807
v 0.058 		-14.4055 		3.807
v 1.1363 		-16.1363 		19.561
v -3.053 		-15.402 		20.947
v -3.257 		-15.429 		21.364
v 0.0777 		-14.4085 		3.807
v 1.1245 		-16.1466 		19.561
v 0.1187 		-14.4151 		3.807
v 0.1729 		-14.4285 		3.807
v 0.2278 		-14.4484 		3.807
v -2.974 		-15.797 		20.947
v 1.1467 		-16.1244 		19.561
v 0.2651 		-14.466 		3.807
v 0.2865 		-14.4769 		3.807
v 0.3307 		-14.5034 		3.807
v 1.54 		-15.889 		19.646
v 0.3777 		-14.5384 		3.807
v -2.845 		-16.179 		20.947
v 0.4099 		-14.5669 		3.807
v 0.4321 		-14.5891 		3.807
v 0.4606 		-14.6213 		3.807
v 0.4956 		-14.6683 		3.807
v -2.797 		-15.369 		20.561
v 0.8196 		-16.3801 		19.561
v 0.5221 		-14.7125 		3.807
v 0.533 		-14.734 		3.807
v 0.5506 		-14.7712 		3.807
v -2.725 		-15.731 		20.561
v -2.606 		-16.08 		20.561
v 3.099 		-18.098 		8.819
v -1.717 		-12.762 		20.561
v -1.994 		-13.005 		20.561
v 3.476 		-17.667 		8.819
v 3.795 		-17.191 		8.819
v 4.048 		-16.677 		8.819
v 2.707 		-12.294 		10.452
v 2.479 		-12.521 		10.933
v 2.607 		-16.08 		20.561
v 3.1226 		-18.1268 		8.245
v 3.037 		-12.67 		10.452
v 2.797 		-15.369 		20.561
v 3.1249 		-18.1249 		8.245
v 3.5039 		-17.6921 		8.245
v 3.5058 		-17.6899 		8.245
v 3.8262 		-17.2124 		8.245
v 3.8278 		-17.2099 		8.245
v 4.0815 		-16.6936 		8.245
v 4.0828 		-16.6909 		8.245
v 0.5706 		-14.8261 		3.807
v 1.553 		-14.584 		19.561
v 0.5837 		-14.8796 		3.807
v 0.5932 		-14.9392 		3.807
v 0.5935 		-14.941 		3.807
v 2.493 		-15.329 		20.211
v 0.5965 		-15 		3.807
v 0.5935 		-15.058 		3.807
v 2.515 		-15 		20.211
v 0.5905 		-15.0776 		3.807
v 0.5839 		-15.1187 		3.807
v 0.5706 		-15.1729 		3.807
v 0.5506 		-15.2278 		3.807
v 2.493 		-14.672 		20.211
v 0.533 		-15.265 		3.807
v 2.429 		-14.35 		20.211
v 0.5221 		-15.2865 		3.807
v 0.4956 		-15.3307 		3.807
v 1.392 		-14.196 		19.561
v 1.4438 		-14.32 		19.5576
v 0.4606 		-15.3777 		3.807
v 1.4003 		-14.2161 		19.561
v 0.4321 		-15.4099 		3.807
v 1.5244 		-14.5148 		19.5593
v 1.4733 		-14.3905 		19.5552
v 0.4099 		-15.4321 		3.807
v 0.3777 		-15.4606 		3.807
v 1.5449 		-14.5645 		19.561
v 0.3307 		-15.4956 		3.807
v 0.2865 		-15.5221 		3.807
v 0.265 		-15.533 		3.807
v 0.2278 		-15.5506 		3.807
v 1.8594 		-14.5019 		16.384
v 0.1729 		-15.5705 		3.807
v 0.1187 		-15.5839 		3.807
v 0.0776 		-15.5905 		3.807
v 0.058 		-15.5935 		3.807
v 0 		-15.5955 		3.807
v -0.4966 		-15.3307 		3.807
v -0.5191 		-15.2933 		3.807
v 2.429 		-15.651 		20.211
v -0.5395 		-15.2534 		3.807
v -0.5516 		-15.2278 		3.807
v -0.5706 		-15.1729 		3.807
v -0.5849 		-15.1182 		3.807
v -0.5869 		-15.1059 		3.807
v -0.5935 		-15.058 		3.807
v -0.5965 		-15 		3.807
v -1.2692 		-13.0179 		11.9708
v -0.5935 		-14.941 		3.807
v -1.1838 		-12.952 		11.9657
v -1.1828 		-12.9511 		11.9656
v -0.5873 		-14.8962 		3.807
v -1.638 		-12.865 		11.748
v -0.5848 		-14.8802 		3.807
v -0.5706 		-14.8261 		3.807
v -1.345 		-12.67 		11.748
v -0.5516 		-14.7712 		3.807
v -0.5395 		-14.7456 		3.807
v -0.5191 		-14.7057 		3.807
v -0.4966 		-14.6683 		3.807
v -1.4271 		-13.14 		11.9798
v -1.51 		-13.2029 		11.9746
v -0.4616 		-14.6213 		3.807
v -1.902 		-13.098 		11.748
v -0.4307 		-14.5873 		3.807
v -2.493 		-15.329 		20.211
v -0.4134 		-14.5698 		3.807
v -0.3787 		-14.5384 		3.807
v -2.514 		-15 		20.211
v -0.3317 		-14.5034 		3.807
v -2.428 		-14.35 		20.211
v -0.2875 		-14.4768 		3.807
v -2.493 		-14.672 		20.211
v -0.2661 		-14.466 		3.807
v -0.2288 		-14.4484 		3.807
v -1.029 		-12.514 		11.748
v -0.1739 		-14.4285 		3.807
v -0.1204 		-14.4153 		3.807
v -1.562 		-12.294 		11.367
v -0.061 		-14.4058 		3.807
v -0.059 		-14.4055 		3.807
v -1.902 		-12.521 		11.367
v -0.059 		-15.5935 		3.807
v -0.0608 		-15.5932 		3.807
v -0.1204 		-15.5837 		3.807
v -0.1739 		-15.5705 		3.807
v -0.2288 		-15.5506 		3.807
v -0.266 		-15.533 		3.807
v -0.2875 		-15.5221 		3.807
v -0.3317 		-15.4956 		3.807
v -0.3787 		-15.4606 		3.807
v -0.4133 		-15.4292 		3.807
v -0.4307 		-15.4117 		3.807
v -0.4616 		-15.3777 		3.807
v -2.428 		-15.651 		20.211
v -1.6668 		-13.3332 		12.057
v 2.8219 		-17.1649 		22.723
v 2.823 		-17.1633 		22.723
v 2.135 		-18.697 		9.386
v 3.0799 		-16.7779 		22.723
v 2.191 		-18.795 		8.819
v 3.0808 		-16.7762 		22.723
v 2.668 		-18.476 		8.819
v 2.797 		-17.147 		22.261
v 2.2072 		-18.8281 		8.245
v 2.2099 		-18.8268 		8.245
v 3.054 		-16.763 		22.261
v 2.6909 		-18.5058 		8.245
v 2.6884 		-18.5075 		8.245
v 3.387 		-14.092 		10.933
v 3.24 		-13.658 		10.933
v 2.725 		-17.091 		21.805
v 0 		-19.083 		9.933
v 0.533 		-19.048 		9.933
v 2.975 		-16.718 		21.805
v 3.697 		-14.009 		10.452
v 1.057 		-18.944 		9.933
v 3.536 		-13.535 		10.452
v 1.563 		-18.772 		9.933
v 2.042 		-18.536 		9.933
v 0 		-19.269 		9.386
v 0.557 		-19.232 		9.386
v 2.607 		-17 		21.364
v 1.105 		-19.124 		9.386
v 2.846 		-16.643 		21.364
v 1.634 		-18.944 		9.386
v 2.444 		-16.875 		20.947
v -2.323 		-12.677 		21.364
v 2.667 		-16.54 		20.947
v -2.177 		-12.823 		20.947
v 0 		-19.382 		8.819
v 0.572 		-19.344 		8.819
v 2.444 		-16.411 		20.561
v 1.134 		-19.232 		8.819
v -2.238 		-13.283 		20.561
v 1.677 		-19.048 		8.819
v 0.577 		-19.3818 		8.245
v 0.574 		-19.382 		8.245
v 2.1649 		-12.1791 		22.723
v 0 		-19.4198 		8.245
v 1.141 		-19.2694 		8.245
v 1.1439 		-19.2688 		8.245
v 1.7779 		-11.9211 		22.723
v 1.6881 		-19.0838 		8.245
v 1.6909 		-19.0828 		8.245
v 1.7762 		-11.9202 		22.723
v -0.962 		-12.677 		20.211
v 1.361 		-11.7151 		22.723
v 0.921 		-11.5661 		22.723
v 1.3591 		-11.7145 		22.723
v -0.282 		-12.854 		19.904
v 0 		-12.836 		19.904
v 0.919 		-11.5657 		22.723
v -0.56 		-12.909 		19.904
v 0.465 		-11.4751 		22.723
v 0.463 		-11.475 		22.723
v -3.0789 		-16.7779 		22.723
v -0.828 		-13 		19.904
v 0 		-11.4441 		22.723
v -2.8209 		-17.1649 		22.723
v -2.8196 		-17.1664 		22.723
v -2.5139 		-17.5149 		22.723
v 2.147 		-12.203 		22.261
v -2.5124 		-17.5162 		22.723
v 2.091 		-12.275 		21.805
v 0 		-13.222 		19.646
v -0.232 		-13.238 		19.646
v -3.053 		-16.763 		22.261
v 1.763 		-11.947 		22.261
v -2.797 		-17.147 		22.261
v -0.46 		-13.283 		19.646
v 1.35 		-11.743 		22.261
v -2.493 		-17.493 		22.261
v 0.913 		-11.595 		22.261
v -2.974 		-16.718 		21.805
v 0.461 		-11.505 		22.261
v -2.725 		-17.091 		21.805
v 0 		-11.475 		22.261
v 1.718 		-12.026 		21.805
v 1.315 		-11.827 		21.805
v 0.889 		-11.683 		21.805
v 0.449 		-11.595 		21.805
v 0 		-11.566 		21.805
v 1.137 		-13.863 		19.561
v 1.3779 		-14.1776 		19.561
v 1.3467 		-14.1366 		19.5594
v 1.2654 		-14.0297 		19.5554
v 1.2189 		-13.9694 		19.5577
v 1.1527 		-13.8835 		19.561
v 1.078 		-13.8177 		19.5596
v 1.1151 		-13.8462 		19.561
v 0.9714 		-13.7355 		19.5555
v 0.9108 		-13.6894 		19.5578
v 0.8288 		-13.627 		19.561
v 0.804 		-13.608 		19.561
v 0.774 		-13.5956 		19.561
v 0.7348 		-13.5792 		19.5597
v 0.6107 		-13.5272 		19.5555
v 0.5406 		-13.4984 		19.5578
v 0.4449 		-13.459 		19.561
v 0.416 		-13.447 		19.561
v 0.4261 		-13.4092 		19.169
v -2.428 		-17.429 		21.805
v 0 		-13.3529 		19.169
v 0 		-13.392 		19.561
v 0.2089 		-13.4191 		19.5557
v -2.845 		-16.643 		21.364
v 0.3425 		-13.4371 		19.5597
v 0.3836 		-13.4427 		19.561
v 0.1337 		-13.4094 		19.5582
v -2.606 		-17 		21.364
v 0.039 		-13.3972 		19.561
v -1.6729 		-13.3264 		11.9649
v -2.667 		-16.54 		20.947
v -2.443 		-16.875 		20.947
v -1.7393 		-13.4137 		11.9702
v -1.8599 		-13.5728 		11.9796
v -0.2079 		-13.419 		19.5557
v -0.0741 		-13.4017 		19.5597
v -0.0353 		-13.3967 		19.561
v -0.2832 		-13.4292 		19.5581
v -0.3792 		-13.4421 		19.561
v -1.6505 		-16.6505 		12.288
v -1.6733 		-13.3267 		11.9649
v -1.6741 		-13.3277 		11.9649
v -0.416 		-13.447 		19.561
v -1.9235 		-13.655 		11.9749
v -0.804 		-13.608 		19.561
v -2.21 		-12.79 		11.367
v -0.6098 		-13.5269 		19.5557
v -0.4851 		-13.4755 		19.5598
v -0.4487 		-13.4606 		19.561
v -2.479 		-13.098 		11.367
v -0.68 		-13.5562 		19.558
v -2.443 		-16.411 		20.561
v 2.5149 		-17.5149 		22.723
v 2.5162 		-17.5134 		22.723
v -2.134 		-13.362 		11.748
v 2.1649 		-17.8219 		22.723
v 2.1664 		-17.8206 		22.723
v -2.0489 		-13.8172 		11.9656
v -2.33 		-13.655 		11.748
v 1.361 		-18.2859 		22.723
v 1.7779 		-18.0799 		22.723
v 1.3627 		-18.285 		22.723
v 1.7796 		-18.0788 		22.723
v -2.0902 		-13.9181 		11.9708
v 0.002 		-18.5557 		22.723
v 0 		-18.5559 		22.723
v -2.1657 		-14.1024 		11.9797
v 0.465 		-18.5259 		22.723
v -2.486 		-13.97 		11.748
v 0.921 		-18.4349 		22.723
v 0.4669 		-18.5255 		22.723
v 0.9228 		-18.4342 		22.723
v 2.147 		-17.797 		22.261
v 2.493 		-17.493 		22.261
v -2.0489 		-13.8172 		11.9656
v 2.091 		-17.725 		21.805
v -2.0494 		-13.8185 		11.9657
v 2.429 		-17.429 		21.805
v -2.2061 		-14.1984 		11.9747
v -2.599 		-14.304 		11.748
v -2.706 		-13.437 		11.367
v 0.913 		-18.406 		22.261
v -2.887 		-13.804 		11.367
v 1.35 		-18.258 		22.261
v -3.019 		-14.191 		11.367
v 1.763 		-18.054 		22.261
v 0.449 		-18.406 		21.805
v 1.903 		-13.098 		11.748
v 0.889 		-18.318 		21.805
v 1.5861 		-13.2606 		11.9707
v 1.4271 		-13.14 		11.9798
v 1.315 		-18.174 		21.805
v 1.718 		-17.975 		21.805
v 1.638 		-12.865 		11.748
v -1.257 		-12.823 		20.211
v -1.53 		-13.005 		20.211
v -1.778 		-13.222 		20.211
v 1.345 		-13.0765 		11.9749
v 1.1828 		-12.9511 		11.9656
v 1.345 		-12.67 		11.748
v -1.082 		-13.126 		19.904
v -1.317 		-13.283 		19.904
v 1.0819 		-12.9098 		11.9708
v 1.03 		-12.514 		11.748
v -0.8971 		-17.1659 		11.9801
v 1.1828 		-12.9511 		11.9656
v 1.1815 		-12.9506 		11.9657
v -0.8018 		-17.2059 		11.9752
v -0.6124 		-17.2857 		11.965
v 1.903 		-12.521 		11.367
v -2.479 		-12.521 		10.933
v 1.563 		-12.294 		11.367
v -2.782 		-12.865 		10.933
v -0.6124 		-17.2857 		11.965
v -0.6111 		-17.2859 		11.965
v -0.5034 		-17.2994 		11.9701
v -0.3056 		-17.3242 		11.9799
v -3.036 		-13.247 		10.933
v -2.706 		-12.294 		10.452
v -3.036 		-12.67 		10.452
v -0.2031 		-17.3381 		11.9751
v -3.315 		-13.086 		10.452
v -3.239 		-13.658 		10.933
v -3.387 		-14.092 		10.933
v 0.8973 		-12.8342 		11.9802
v -3.536 		-13.535 		10.452
v 0.6124 		-12.7144 		11.9654
v 0.8018 		-12.7941 		11.9752
v 0.6123 		-12.7143 		11.9655
v -3.697 		-14.009 		10.452
v 0.696 		-12.401 		11.748
v -1.8599 		-16.4272 		11.9796
v 0.611 		-12.7142 		11.9655
v 0.5037 		-12.7005 		11.9704
v 0.3064 		-12.6753 		11.9796
v 0.351 		-12.333 		11.748
v -1.6733 		-16.6733 		11.9649
v -1.7971 		-16.51 		11.9746
v -1.6729 		-16.6736 		11.9649
v -1.902 		-16.902 		11.748
v -1.1813 		-17.0464 		11.9942
v 0.2036 		-12.6613 		11.9749
v 0 		-12.6334 		11.9652
v 0 		-12.309 		11.748
v -1.5855 		-16.7399 		11.9703
v -1.4272 		-16.8599 		11.9796
v -1.638 		-17.134 		11.748
v -1.6723 		-16.6741 		11.965
v -1.9819 		-16.2694 		11.9707
v -1.345 		-16.9235 		11.9749
v -1.1828 		-17.0489 		11.9656
v 2.0094 		-13.8181 		12.288
v -2.2545 		-14.396 		12.288
v 1.258 		-18.036 		21.364
v 1.643 		-17.846 		21.364
v 2 		-17.607 		21.364
v 1.179 		-17.846 		20.947
v -2.3517 		-15.1088 		11.9702
v -2.3248 		-15.3057 		11.9795
v -2.667 		-15.351 		11.748
v -2.3666 		-15 		11.9649
v -2.3664 		-15.0013 		11.965
v -2.69 		-15 		11.748
v -2.2857 		-14.3876 		11.965
v -2.2857 		-14.3876 		11.965
v -2.2859 		-14.3889 		11.965
v -2.2996 		-14.4967 		11.97
v -2.3248 		-14.6943 		11.9795
v -2.667 		-14.649 		11.748
v -2.3389 		-14.7973 		11.9746
v -3.125 		-15 		11.367
v -3.098 		-14.592 		11.367
v -2.2545 		-15.604 		12.288
v -2.2857 		-15.6124 		11.965
v -2.3116 		-15.4086 		11.9748
v -2.2857 		-15.6124 		11.965
v -2.599 		-15.696 		11.748
v -2.243 		-15.7138 		11.9703
v -2.1657 		-15.8976 		11.9797
v -2.486 		-16.03 		11.748
v -2.2852 		-15.6136 		11.965
v -0.771 		-13.5943 		19.561
v -1.137 		-13.863 		19.561
v -0.8327 		-13.63 		19.561
v -0.8635 		-13.6534 		19.5598
v -0.9707 		-13.735 		19.5557
v -1.0308 		-13.7813 		19.558
v -1.1072 		-13.8402 		19.561
v -0.68 		-13.358 		19.646
v -0.889 		-13.461 		19.646
v 0 		-13.3945 		19.561
v -0.4154 		-13.4493 		19.561
v -0.8028 		-13.61 		19.561
v -1.994 		-13.47 		20.211
v -1.53 		-13.47 		19.904
v -1.717 		-13.683 		19.904
v -1.082 		-13.59 		19.646
v -1.257 		-13.743 		19.646
v 1.643 		-12.155 		21.364
v 1.258 		-11.965 		21.364
v 0.851 		-11.827 		21.364
v 0.429 		-11.743 		21.364
v -1.874 		-13.918 		19.904
v 0 		-11.715 		21.364
v -2 		-14.172 		19.904
v -1.41 		-13.918 		19.646
v 1.179 		-12.155 		20.947
v -1.539 		-14.111 		19.646
v 0.797 		-12.026 		20.947
v -1.642 		-14.32 		19.646
v 0.402 		-11.947 		20.947
v 0 		-11.921 		20.947
v -1.1353 		-13.8647 		19.561
v -1.16 		-13.8931 		19.561
v 0.731 		-12.275 		20.561
v -1.3701 		-14.1674 		19.561
v -1.39 		-14.1972 		19.561
v 0.369 		-12.203 		20.561
v -1.4055 		-14.2286 		19.561
v 0 		-12.179 		20.561
v -2.177 		-13.743 		20.211
v -2.323 		-14.038 		20.211
v -1.778 		-15 		19.646
v -1.762 		-15.232 		19.646
v -1.717 		-14.54 		19.646
v -1.762 		-14.768 		19.646
v 2 		-12.394 		21.364
v -1.1826 		-13.9223 		19.5599
v -1.265 		-14.0293 		19.5557
v -1.3109 		-14.0897 		19.558
v -1.392 		-14.196 		19.561
v -1.6055 		-15 		19.561
v -1.6034 		-15.0352 		19.561
v -1.5391 		-14.5505 		19.561
v -1.5507 		-14.5846 		19.561
v -1.5577 		-14.6194 		19.561
v -1.6028 		-14.9609 		19.561
v -0.8223 		-16.378 		19.561
v -2 		-15.829 		19.904
v -1.717 		-15.461 		19.646
v -1.642 		-15.681 		19.646
v -1.5575 		-15.3818 		19.561
v -1.5507 		-15.4164 		19.561
v -1.5413 		-15.4443 		19.561
v -1.39 		-15.8032 		19.561
v -1.4042 		-15.7745 		19.561
v -1.3722 		-15.8299 		19.561
v -1.874 		-16.083 		19.904
v -1.717 		-16.318 		19.904
v -1.539 		-15.889 		19.646
v -1.41 		-16.083 		19.646
v -1.257 		-16.258 		19.646
v -1.345 		-17.33 		11.748
v -1.1353 		-16.1363 		19.561
v -1.1536 		-16.1153 		19.561
v -1.1162 		-16.1529 		19.561
v -1.1828 		-17.0489 		11.9656
v -1.1815 		-17.0494 		11.9657
v -1.0816 		-17.0903 		11.9707
v -2.146 		-15.283 		19.904
v -2.164 		-15 		19.904
v -2.091 		-14.44 		19.904
v -2.146 		-14.718 		19.904
v -1.029 		-17.486 		11.748
v -0.696 		-17.599 		11.748
v -0.351 		-17.667 		11.748
v -2.323 		-15.963 		20.211
v -2.177 		-16.258 		20.211
v -1.902 		-17.479 		11.367
v -2.091 		-15.561 		19.904
v -1.562 		-17.706 		11.367
v -1.196 		-17.887 		11.367
v -0.809 		-18.019 		11.367
v -0.408 		-18.098 		11.367
v 1.9821 		-13.7308 		11.9708
v 1.86 		-13.5729 		11.9798
v 1.7974 		-13.4903 		11.9748
v 1.6734 		-13.3269 		11.9654
v -1.753 		-18.037 		10.933
v 1.6733 		-13.3267 		11.9654
v -1.342 		-18.239 		10.933
v 1.6722 		-13.3259 		11.9655
v -0.907 		-18.387 		10.933
v -1.421 		-14.2655 		19.5598
v 1.54 		-17.667 		20.947
v -1.4731 		-14.3902 		19.5557
v -1.5019 		-14.4601 		19.558
v 1.875 		-17.444 		20.947
v 1.08 		-17.607 		20.561
v 1.411 		-17.444 		20.561
v -1.553 		-14.584 		19.561
v 0 		-18.286 		21.364
v 0.429 		-18.258 		21.364
v -1.608 		-15 		19.561
v 0.851 		-18.174 		21.364
v -1.581 		-14.7921 		19.5557
v 0.402 		-18.054 		20.947
v -1.563 		-14.6585 		19.5598
v 0 		-18.08 		20.947
v -1.5907 		-14.8669 		19.5582
v 0.797 		-17.975 		20.947
v 0 		-17.822 		20.561
v 0.369 		-17.797 		20.561
v 0.731 		-17.725 		20.561
v -1.581 		-15.2083 		19.5557
v -1.5983 		-15.0746 		19.5597
v -1.5708 		-15.2836 		19.5581
v 0 		-18.526 		22.261
v 0.461 		-18.496 		22.261
v -1.595 		-15.3946 		19.169
v 0 		-18.435 		21.805
v 3.125 		-15 		11.367
v 3.099 		-14.592 		11.367
v 1.875 		-12.557 		20.947
v 1.54 		-12.333 		20.947
v -1.553 		-15.416 		19.561
v 1.411 		-12.557 		20.561
v 1.08 		-12.394 		20.561
v -1.392 		-15.804 		19.561
v -1.524 		-15.4862 		19.5596
v -1.4728 		-15.6107 		19.5555
v -1.4434 		-15.681 		19.5578
v 0.651 		-12.572 		20.211
v 0.329 		-12.507 		20.211
v 0 		-12.486 		20.211
v -0.002 		-11.4443 		22.723
v -1.7779 		-11.9211 		22.723
v -1.7796 		-11.9222 		22.723
v -1.137 		-16.137 		19.561
v -0.464 		-11.4751 		22.723
v -1.184 		-16.1394 		19.169
v -0.92 		-11.5661 		22.723
v -0.4659 		-11.4755 		22.723
v -0.9218 		-11.5668 		22.723
v -1.36 		-11.7151 		22.723
v -1.3463 		-15.8639 		19.5597
v -1.3617 		-11.716 		22.723
v -1.2645 		-15.9714 		19.5555
v -1.2181 		-16.0316 		19.5578
v -2.1639 		-12.1791 		22.723
v -2.1654 		-12.1804 		22.723
v -0.46 		-11.505 		22.261
v -0.912 		-11.595 		22.261
v -1.349 		-11.743 		22.261
v 2.3247 		-15.3057 		11.9797
v 2.668 		-15.351 		11.748
v 2.3666 		-15 		11.9652
v 2.3388 		-15.2029 		11.9748
v 2.691 		-15 		11.748
v 2.3517 		-14.8914 		11.9704
v 2.3247 		-14.6943 		11.9797
v 2.668 		-14.649 		11.748
v 2.3664 		-14.9987 		11.9652
v 2.3116 		-14.5914 		11.9748
v 2.2857 		-14.3877 		11.9655
v 2.2856 		-14.3876 		11.9654
v 2.2851 		-14.3864 		11.9655
v -1.914 		-18.315 		10.452
v 2.0489 		-16.1828 		11.9656
v 2.33 		-16.345 		11.748
v 2.0902 		-16.0819 		11.9708
v 2.1658 		-15.8973 		11.9802
v 2.486 		-16.03 		11.748
v 2.0489 		-16.1828 		11.9656
v 2.0494 		-16.1815 		11.9657
v 2.2059 		-15.8018 		11.9752
v 2.2856 		-15.6124 		11.9654
v 2.2857 		-15.6123 		11.9655
v 2.599 		-15.696 		11.748
v 2.2995 		-15.5038 		11.9706
v 2.2858 		-15.611 		11.9655
v 2.887 		-16.196 		11.367
v 3.019 		-15.809 		11.367
v 3.099 		-15.408 		11.367
v 3.506 		-15 		10.933
v 3.476 		-14.542 		10.933
v 3.828 		-15 		10.452
v 3.795 		-14.5 		10.452
v 2.324 		-17.323 		21.364
v 2.178 		-17.178 		20.947
v 2.239 		-16.718 		20.561
v 1.718 		-17.239 		20.561
v 1.995 		-16.995 		20.561
v 1.258 		-17.178 		20.211
v 1.531 		-16.995 		20.211
v 1.778 		-16.778 		20.211
v 1.995 		-16.531 		20.211
v 1.083 		-16.875 		19.904
v 1.318 		-16.718 		19.904
v 1.531 		-16.531 		19.904
v 1.083 		-16.411 		19.646
v 0.963 		-17.323 		20.211
v 0.283 		-17.147 		19.904
v 0 		-17.165 		19.904
v 0.561 		-17.091 		19.904
v 0.829 		-17 		19.904
v -0.458 		-18.476 		10.933
v 0 		-16.778 		19.646
v 0.233 		-16.763 		19.646
v -1.465 		-18.536 		10.452
v 0.461 		-16.718 		19.646
v -0.99 		-18.697 		10.452
v 0.681 		-16.643 		19.646
v -0.499 		-18.795 		10.452
v 0.889 		-16.54 		19.646
v 0 		-16.6059 		19.561
v 0.0293 		-16.6041 		19.561
v 0.3976 		-16.5554 		19.561
v 0.4164 		-16.5517 		19.561
v -2.134 		-16.638 		11.748
v 0.431 		-16.5468 		19.561
v 0.8032 		-16.391 		19.561
v -2.706 		-16.563 		11.367
v 0.787 		-16.3991 		19.561
v -2.479 		-16.902 		11.367
v -2.21 		-17.21 		11.367
v -2.1264 		-15.9935 		11.9748
v -2.0489 		-16.1828 		11.9656
v -2.0489 		-16.1828 		11.9656
v -2.33 		-16.345 		11.748
v -3.036 		-16.753 		10.933
v -2.782 		-17.134 		10.933
v -2.048 		-16.1838 		11.9657
v 0.329 		-17.493 		20.211
v 0 		-17.515 		20.211
v 0.651 		-17.429 		20.211
v -3.098 		-15.408 		11.367
v -3.019 		-15.809 		11.367
v -2.887 		-16.196 		11.367
v -1.7779 		-18.0799 		22.723
v -1.7762 		-18.0808 		22.723
v -1.36 		-18.2859 		22.723
v -1.3581 		-18.2865 		22.723
v -3.506 		-15 		10.933
v -3.476 		-14.542 		10.933
v -0.464 		-18.5259 		22.723
v -0.462 		-18.526 		22.723
v -0.92 		-18.4349 		22.723
v -0.918 		-18.4353 		22.723
v -3.827 		-15 		10.452
v -3.795 		-14.5 		10.452
v -2.1639 		-17.8219 		22.723
v -2.1623 		-17.823 		22.723
v -1.762 		-18.054 		22.261
v -0.9703 		-16.2654 		19.5554
v -0.9096 		-16.3115 		19.5577
v -1.349 		-18.258 		22.261
v -1.0768 		-16.1833 		19.5595
v -0.912 		-18.406 		22.261
v -1.717 		-17.975 		21.805
v -1.314 		-18.174 		21.805
v -0.889 		-18.318 		21.805
v -0.448 		-18.406 		21.805
v -0.804 		-16.392 		19.561
v -0.6095 		-16.4733 		19.5552
v -0.7337 		-16.4213 		19.5593
v -0.7841 		-16.4003 		19.561
v -0.5392 		-16.5022 		19.5576
v -0.436 		-16.5447 		19.561
v -0.85 		-18.174 		21.364
v -0.428 		-18.258 		21.364
v -0.416 		-16.553 		19.561
v -0.797 		-17.975 		20.947
v -0.4261 		-16.5908 		19.169
v -0.402 		-18.054 		20.947
v -0.73 		-17.725 		20.561
v -0.368 		-17.797 		20.561
v -3.476 		-15.458 		10.933
v -1.762 		-11.947 		22.261
v -3.387 		-15.907 		10.933
v -3.239 		-16.342 		10.933
v -0.448 		-11.595 		21.805
v -0.889 		-11.683 		21.805
v -3.795 		-15.5 		10.452
v -1.314 		-11.827 		21.805
v -3.697 		-15.991 		10.452
v -1.717 		-12.026 		21.805
v -3.239 		-12.514 		9.933
v -3.536 		-12.958 		9.933
v -0.428 		-11.743 		21.364
v -3.772 		-13.437 		9.933
v -0.85 		-11.827 		21.364
v -3.944 		-13.943 		9.933
v -0.402 		-11.947 		20.947
v -0.797 		-12.026 		20.947
v -3.387 		-12.401 		9.386
v -0.368 		-12.203 		20.561
v -3.697 		-12.865 		9.386
v -0.73 		-12.275 		20.561
v -3.944 		-13.366 		9.386
v -1.257 		-11.965 		21.364
v -1.642 		-12.155 		21.364
v -3.476 		-12.333 		8.819
v -3.795 		-12.809 		8.819
v -4.048 		-13.323 		8.819
v -3.536 		-16.465 		10.452
v -3.5039 		-12.3069 		8.245
v -3.5058 		-12.3091 		8.245
v -3.315 		-16.914 		10.452
v -3.8252 		-12.7876 		8.245
v -3.036 		-17.33 		10.452
v -3.8268 		-12.7901 		8.245
v -4.0815 		-13.3064 		8.245
v -4.0828 		-13.3091 		8.245
v -4.083 		-15 		9.933
v -4.048 		-15.533 		9.933
v -3.944 		-16.057 		9.933
v -2.479 		-17.479 		10.933
v -2.134 		-17.782 		10.933
v -2.706 		-17.706 		10.452
v -2.33 		-18.037 		10.452
v -4.048 		-14.467 		9.933
v -2.041 		-18.536 		9.933
v -0.187 		-14.426 		8.245
v 0 		-14.396 		8.245
v -0.355 		-14.511 		8.245
v -1.562 		-18.772 		9.933
v -0.488 		-14.645 		8.245
v -0.574 		-14.813 		8.245
v -1.057 		-18.944 		9.933
v -0.604 		-15 		8.245
v -0.574 		-15.186 		8.245
v -0.488 		-15.354 		8.245
v -0.533 		-19.048 		9.933
v -0.355 		-15.488 		8.245
v -0.187 		-15.573 		8.245
v 0 		-15.603 		8.245
v -1.634 		-18.944 		9.386
v -1.105 		-19.124 		9.386
v -0.557 		-19.232 		9.386
v -4.123 		-13.895 		9.386
v -4.232 		-13.866 		8.819
v -4.2679 		-13.8532 		8.245
v -4.2688 		-13.8561 		8.245
v -4.269 		-15 		9.386
v -4.232 		-15.557 		9.386
v -4.123 		-16.105 		9.386
v -4.232 		-14.443 		9.386
v -1.178 		-12.155 		20.947
v -1.994 		-16.995 		20.561
v -1.717 		-17.239 		20.561
v -2.146 		-12.203 		22.261
v -2.091 		-12.275 		21.805
v -2.323 		-17.323 		21.364
v -2.177 		-17.178 		20.947
v -2 		-12.394 		21.364
v -2.238 		-16.718 		20.561
v -1.539 		-12.333 		20.947
v -1.874 		-12.557 		20.947
v -1.079 		-12.394 		20.561
v -0.962 		-17.323 		20.211
v -1.41 		-12.557 		20.561
v -0.828 		-17 		19.904
v -0.56 		-17.091 		19.904
v -0.282 		-17.147 		19.904
v -0.889 		-16.54 		19.646
v -0.68 		-16.643 		19.646
v -0.46 		-16.718 		19.646
v -0.232 		-16.763 		19.646
v -0.328 		-12.507 		20.211
v -0.8028 		-16.391 		19.561
v -0.65 		-12.572 		20.211
v -0.4154 		-16.5517 		19.561
v -0.3954 		-16.5557 		19.561
v -0.0305 		-16.604 		19.561
v -1.994 		-16.531 		20.211
v -1.778 		-16.778 		20.211
v -1.53 		-16.995 		20.211
v -1.257 		-17.178 		20.211
v -1.53 		-16.531 		19.904
v -1.317 		-16.718 		19.904
v -1.082 		-16.875 		19.904
v -1.082 		-16.411 		19.646
v 0 		-16.608 		19.561
v 0.416 		-16.553 		19.561
v 1.3806 		-15.8189 		19.561
v 1.392 		-15.804 		19.561
v 1.137 		-16.137 		19.561
v 1.3992 		-15.7867 		19.561
v 1.5466 		-15.4314 		19.561
v 1.553 		-15.416 		19.561
v 1.608 		-15 		19.561
v 1.6041 		-14.9706 		19.561
v 1.5558 		-14.6054 		19.561
v 1.391 		-14.1972 		19.561
v 1.1363 		-13.8647 		19.561
v 0.8032 		-13.61 		19.561
v 0.4164 		-13.4493 		19.561
v 1.6059 		-15 		19.561
v 1.604 		-15.0305 		19.561
v 0 		-15 		0
v 1.5517 		-14.5846 		19.561
v 1.391 		-15.8032 		19.561
v 1.5517 		-15.4164 		19.561
v 1.5553 		-15.3983 		19.561
v -2 		-17.607 		21.364
v -1.642 		-17.846 		21.364
v -1.257 		-18.036 		21.364
v -0.2078 		-16.5811 		19.5553
v -0.3409 		-16.5631 		19.5593
v -0.1326 		-16.5908 		19.5578
v -1.677 		-19.048 		8.819
v -1.134 		-19.232 		8.819
v -0.572 		-19.344 		8.819
v -1.6936 		-19.0815 		8.245
v -1.6909 		-19.0828 		8.245
v -1.1468 		-19.2679 		8.245
v -1.1439 		-19.2688 		8.245
v -0.577 		-19.3818 		8.245
v -0.5799 		-19.3812 		8.245
v -0.003 		-19.4196 		8.245
v -3.772 		-16.563 		9.933
v -3.536 		-17.042 		9.933
v 0.6311 		-17.2032 		12.662
v -3.944 		-16.634 		9.386
v -3.697 		-17.134 		9.386
v 2.2237 		-15.555 		12.662
v -3.239 		-17.486 		9.933
v -1.874 		-17.444 		20.947
v 1.5926 		-13.3518 		12.662
v -1.539 		-17.667 		20.947
v 3.24 		-16.342 		10.933
v -1.178 		-17.846 		20.947
v 3.387 		-15.907 		10.933
v 3.476 		-15.458 		10.933
v -1.41 		-17.444 		20.561
v 3.697 		-15.991 		10.452
v -1.079 		-17.607 		20.561
v 3.795 		-15.5 		10.452
v -0.46 		-18.496 		22.261
v -2.146 		-17.797 		22.261
v -2.091 		-17.725 		21.805
v 1.9235 		-16.345 		11.9749
v 3.944 		-13.943 		9.933
v 3.773 		-13.437 		9.933
v 3.536 		-12.958 		9.933
v 3.24 		-12.514 		9.933
v 3.944 		-13.366 		9.386
v -0.65 		-17.429 		20.211
v 3.697 		-12.865 		9.386
v 3.387 		-12.401 		9.386
v -0.328 		-17.493 		20.211
v -0.5944 		-12.7815 		12.662
v 0.603 		-15 		3.807
v 0 		-14.396 		3.807
v 0.186 		-14.426 		3.807
v -2.0039 		-13.8887 		12.662
v 0.354 		-14.511 		3.807
v 2.8219 		-12.8361 		22.723
v 2.8206 		-12.8346 		22.723
v 0.488 		-14.645 		3.807
v 4.048 		-13.323 		8.819
v 2.5149 		-12.4861 		22.723
v 3.795 		-12.809 		8.819
v 0.573 		-14.813 		3.807
v 2.5134 		-12.4848 		22.723
v 3.0799 		-13.2221 		22.723
v 3.476 		-12.333 		8.819
v 3.0788 		-13.2204 		22.723
v 0.573 		-15.186 		3.807
v 4.0838 		-13.3119 		8.245
v 0.488 		-15.354 		3.807
v 2.135 		-12.218 		10.933
v -0.604 		-15 		3.807
v -4.382 		-15 		8.819
v -4.344 		-15.572 		8.819
v 2.33 		-11.963 		10.452
v -0.488 		-15.354 		3.807
v 3.4349 		-14.08 		22.723
v -0.574 		-15.186 		3.807
v 3.4342 		-14.0782 		22.723
v -4.232 		-16.134 		8.819
v 3.2859 		-13.64 		22.723
v 3.285 		-13.6383 		22.723
v 1.196 		-12.113 		11.367
v 0.809 		-11.981 		11.367
v -2.887 		-17.887 		9.933
v 3.5559 		-15 		22.723
v -4.344 		-14.428 		8.819
v 0.408 		-11.902 		11.367
v 3.5557 		-14.998 		22.723
v -2.486 		-18.239 		9.933
v 3.5259 		-14.536 		22.723
v -4.3818 		-15.577 		8.245
v 0 		-11.875 		11.367
v 3.5255 		-14.5341 		22.723
v -4.382 		-15.574 		8.245
v -4.4188 		-15 		8.245
v -4.2694 		-16.141 		8.245
v 3.5259 		-15.465 		22.723
v -4.2688 		-16.1439 		8.245
v -3.387 		-17.599 		9.386
v -4.3812 		-14.4201 		8.245
v -4.3818 		-14.423 		8.245
v -3.019 		-18.019 		9.386
v 3.526 		-15.463 		22.723
v -4.4186 		-14.997 		8.245
v -2.599 		-18.387 		9.386
v 1.753 		-11.963 		10.933
v 3.2859 		-16.361 		22.723
v 3.4349 		-15.921 		22.723
v 3.2865 		-16.3591 		22.723
v 1.342 		-11.761 		10.933
v 3.4353 		-15.919 		22.723
v 0.908 		-11.613 		10.933
v 4.0828 		-13.3091 		8.245
v 0.458 		-11.524 		10.933
v 3.8291 		-12.7928 		8.245
v 3.8278 		-12.7901 		8.245
v 3.5075 		-12.3116 		8.245
v 3.5058 		-12.3091 		8.245
v 0 		-11.494 		10.933
v -4.048 		-16.677 		8.819
v -3.795 		-17.191 		8.819
v -3.476 		-17.667 		8.819
v 2.324 		-12.677 		21.364
v 3.944 		-16.057 		9.933
v 3.054 		-13.238 		22.261
v 2.797 		-12.854 		22.261
v 2.178 		-12.823 		20.947
v 2.493 		-12.507 		22.261
v 2.239 		-13.283 		20.561
v 2.975 		-13.283 		21.805
v 2.725 		-12.909 		21.805
v 2.429 		-12.572 		21.805
v 1.995 		-13.005 		20.561
v 3.406 		-14.088 		22.261
v 1.718 		-12.762 		20.561
v 3.258 		-13.651 		22.261
v 3.318 		-14.111 		21.805
v 2.324 		-14.038 		20.211
v 3.174 		-13.686 		21.805
v 2.178 		-13.743 		20.211
v 2.607 		-13 		21.364
v 2.444 		-13.126 		20.947
v 1.778 		-13.222 		20.211
v 1.531 		-13.005 		20.211
v 1.258 		-12.823 		20.211
v 3.174 		-14.15 		21.364
v 3.036 		-13.743 		21.364
v 1.318 		-13.283 		19.904
v 2.846 		-13.358 		21.364
v 1.083 		-13.126 		19.904
v 2.975 		-14.203 		20.947
v 2.846 		-13.822 		20.947
v 0.963 		-12.677 		20.211
v 2.667 		-13.461 		20.947
v 2.725 		-14.27 		20.561
v 0.829 		-13 		19.904
v 2.607 		-13.921 		20.561
v 0.561 		-12.909 		19.904
v 2.444 		-13.59 		20.561
v 0.283 		-12.854 		19.904
v 4.048 		-15.533 		9.933
v 4.083 		-15 		9.933
v 4.048 		-14.467 		9.933
v 0.461 		-13.283 		19.646
v 0.233 		-13.238 		19.646
v 0.488 		-15.354 		8.245
v 0.573 		-15.186 		8.245
v 0.603 		-15 		8.245
v 1.995 		-13.47 		20.211
v 0.573 		-14.813 		8.245
v 0.488 		-14.645 		8.245
v 0.354 		-14.511 		8.245
v 0.186 		-14.426 		8.245
v 0.186 		-15.573 		8.245
v 0.354 		-15.488 		8.245
v 1.718 		-13.683 		19.904
v 1.531 		-13.47 		19.904
v 1.258 		-13.743 		19.646
v -0.408 		-11.902 		11.367
v -0.809 		-11.981 		11.367
v -0.574 		-14.813 		3.807
v -1.196 		-12.113 		11.367
v -0.488 		-14.645 		3.807
v -0.355 		-14.511 		3.807
v -0.187 		-14.426 		3.807
v 0 		-15.603 		3.807
v -0.458 		-11.524 		10.933
v 0.354 		-15.488 		3.807
v 0.186 		-15.573 		3.807
v -0.907 		-11.613 		10.933
v -0.187 		-15.573 		3.807
v -1.342 		-11.761 		10.933
v -1.753 		-11.963 		10.933
v -0.355 		-15.488 		3.807
v 0.5192 		-15.2923 		3.81
v 0.526 		-15.281 		3.81
v 0.5407 		-15.2499 		3.81
v 0 		-11.172 		10.452
v -0.499 		-11.205 		10.452
v 0.5829 		-15.1244 		3.81
v 0.585 		-15.116 		3.81
v 0.594 		-15.058 		3.81
v 0.5942 		-15.0548 		3.81
v 0.5937 		-15.058 		3.8078
v -0.99 		-11.303 		10.452
v -1.465 		-11.464 		10.452
v 0.5942 		-14.9452 		3.81
v 0.594 		-14.941 		3.81
v 0.585 		-14.883 		3.81
v 0.5828 		-14.874 		3.81
v -1.914 		-11.685 		10.452
v 0.5935 		-14.941 		3.8071
v 0.5407 		-14.7491 		3.81
v 0.526 		-14.718 		3.81
v 0.5192 		-14.7067 		3.81
v 0.4376 		-14.5946 		3.81
v 0.422 		-14.577 		3.81
v 0.4044 		-14.5614 		3.81
v -2.134 		-12.218 		10.933
v -3.098 		-18.098 		8.819
v -2.33 		-11.963 		10.452
v 1.083 		-13.59 		19.646
v -4.0838 		-16.6881 		8.245
v -4.0828 		-16.6909 		8.245
v -3.8281 		-17.2072 		8.245
v -3.8268 		-17.2099 		8.245
v -0.533 		-10.952 		9.933
v -3.5075 		-17.6874 		8.245
v -3.5058 		-17.6899 		8.245
v 0 		-10.917 		9.933
v -1.057 		-11.056 		9.933
v -3.1249 		-18.1249 		8.245
v -3.1268 		-18.1226 		8.245
v -1.562 		-11.228 		9.933
v 2 		-14.172 		19.904
v 1.875 		-13.918 		19.904
v -2.041 		-11.464 		9.933
v 1.643 		-14.32 		19.646
v -2.134 		-18.697 		9.386
v 1.54 		-14.111 		19.646
v -0.557 		-10.767 		9.386
v -2.667 		-18.476 		8.819
v -2.191 		-18.795 		8.819
v 0 		-10.731 		9.386
v -1.105 		-10.876 		9.386
v 1.411 		-13.918 		19.646
v -1.634 		-11.056 		9.386
v -2.6921 		-18.5039 		8.245
v -2.6899 		-18.5058 		8.245
v -2.2124 		-18.8252 		8.245
v -2.2099 		-18.8268 		8.245
v 0.889 		-13.461 		19.646
v 0.681 		-13.358 		19.646
v 0 		-10.618 		8.819
v -0.572 		-10.656 		8.819
v -1.134 		-10.767 		8.819
v -1.677 		-10.952 		8.819
v -0.574 		-10.618 		8.245
v -0.577 		-10.6182 		8.245
v 0 		-10.5802 		8.245
v -1.141 		-10.7306 		8.245
v -1.1439 		-10.7312 		8.245
v -1.6881 		-10.9162 		8.245
v -1.6909 		-10.9172 		8.245
v 2.147 		-15.283 		19.904
v -2.486 		-11.761 		9.933
v -2.887 		-12.113 		9.933
v 2.165 		-15 		19.904
v -2.134 		-11.303 		9.386
v 2.147 		-14.718 		19.904
v -2.599 		-11.613 		9.386
v -3.019 		-11.981 		9.386
v 2.091 		-14.44 		19.904
v 2.178 		-16.258 		20.211
v 2.324 		-15.963 		20.211
v 2.091 		-15.561 		19.904
v 1.763 		-15.232 		19.646
v 1.778 		-15 		19.646
v 1.763 		-14.768 		19.646
v 1.718 		-14.54 		19.646
v 2 		-15.829 		19.904
v 1.643 		-15.681 		19.646
v 1.718 		-15.461 		19.646
v 0.2923 		-14.4798 		3.81
v 0.281 		-14.473 		3.81
v 0.2499 		-14.4583 		3.81
v 0.1244 		-14.4161 		3.81
v 0.116 		-14.414 		3.81
v 0.058 		-14.405 		3.81
v 0.0552 		-14.4049 		3.81
v 0.058 		-14.4053 		3.8078
v -0.0553 		-14.4049 		3.81
v -0.059 		-14.405 		3.81
v -0.117 		-14.414 		3.81
v -0.126 		-14.4162 		3.81
v -0.059 		-14.4055 		3.8071
v 3.526 		-15 		22.261
v 3.496 		-14.54 		22.261
v -0.2509 		-14.4583 		3.81
v -0.282 		-14.473 		3.81
v -0.2933 		-14.4798 		3.81
v 3.435 		-15 		21.805
v 3.406 		-14.552 		21.805
v -0.407 		-14.5634 		3.81
v -0.422 		-14.577 		3.81
v -0.4383 		-14.5949 		3.81
v -0.5159 		-14.6995 		3.81
v -0.527 		-14.718 		3.81
v -0.5461 		-14.7586 		3.81
v 3.258 		-16.35 		22.261
v -0.584 		-14.8755 		3.81
v -0.586 		-14.883 		3.81
v -0.5907 		-14.9172 		3.81
v 3.406 		-15.913 		22.261
v 3.496 		-15.461 		22.261
v -0.5902 		-15.0856 		3.81
v -0.586 		-15.116 		3.81
v -0.5842 		-15.123 		3.81
v 3.174 		-16.315 		21.805
v -0.5461 		-15.2404 		3.81
v -0.527 		-15.281 		3.81
v -0.5159 		-15.2995 		3.81
v 3.318 		-15.889 		21.805
v 3.406 		-15.449 		21.805
v 0.0552 		-15.5941 		3.81
v 0.058 		-15.594 		3.81
v 0.116 		-15.585 		3.81
v 0.1244 		-15.5829 		3.81
v 0.058 		-15.5937 		3.8078
v 0.2499 		-15.5407 		3.81
v 0.281 		-15.526 		3.81
v 0.2923 		-15.5192 		3.81
v 0.4044 		-15.4376 		3.81
v 0.422 		-15.422 		3.81
v 0.4376 		-15.4044 		3.81
v -0.4383 		-15.4041 		3.81
v -0.422 		-15.422 		3.81
v -0.407 		-15.4356 		3.81
v -0.2933 		-15.5192 		3.81
v -0.282 		-15.526 		3.81
v -0.2509 		-15.5407 		3.81
v 2.135 		-16.638 		11.748
v -0.126 		-15.5828 		3.81
v -0.117 		-15.585 		3.81
v -0.059 		-15.594 		3.81
v -0.0553 		-15.5941 		3.81
v -0.059 		-15.5935 		3.8071
v 2.21 		-17.21 		11.367
v 1.914 		-11.685 		10.452
v 2.479 		-16.902 		11.367
v -3.0789 		-13.2221 		22.723
v 1.465 		-11.464 		10.452
v -3.0798 		-13.2238 		22.723
v 2.707 		-16.563 		11.367
v 0.991 		-11.303 		10.452
v -2.5139 		-12.4861 		22.723
v -2.5152 		-12.4876 		22.723
v 0.5 		-11.205 		10.452
v -2.8209 		-12.8361 		22.723
v -2.822 		-12.8377 		22.723
v 2.782 		-17.134 		10.933
v 3.037 		-16.753 		10.933
v -3.2849 		-13.64 		22.723
v -3.4339 		-14.08 		22.723
v 2.887 		-12.113 		9.933
v -3.2855 		-13.6419 		22.723
v 3.037 		-17.33 		10.452
v -3.4343 		-14.082 		22.723
v 2.486 		-11.761 		9.933
v 3.315 		-16.914 		10.452
v -3.5557 		-15.002 		22.723
v -3.5559 		-15 		22.723
v 3.536 		-16.465 		10.452
v 3.019 		-11.981 		9.386
v 2.599 		-11.613 		9.386
v -3.5249 		-14.536 		22.723
v -3.525 		-14.538 		22.723
v 2.135 		-11.303 		9.386
v -3.5249 		-15.465 		22.723
v -3.4339 		-15.921 		22.723
v 2.135 		-17.782 		10.933
v -3.5245 		-15.4669 		22.723
v -3.4332 		-15.9228 		22.723
v 2.479 		-17.479 		10.933
v -3.2849 		-16.361 		22.723
v -3.284 		-16.3627 		22.723
v 2.33 		-18.037 		10.452
v 2.707 		-17.706 		10.452
v -2.493 		-12.507 		22.261
v 0.804 		-16.392 		19.561
v -2.797 		-12.854 		22.261
v -3.053 		-13.238 		22.261
v 1.1837 		-17.0445 		11.9952
v -2.428 		-12.572 		21.805
v -2.725 		-12.909 		21.805
v -2.974 		-13.283 		21.805
v 1.6722 		-16.6665 		12.0158
v -3.257 		-13.651 		22.261
v -3.405 		-14.088 		22.261
v -3.173 		-13.686 		21.805
v 3.286 		-15 		21.364
v -3.317 		-14.111 		21.805
v 3.258 		-14.572 		21.364
v 3.08 		-15 		20.947
v 3.054 		-14.598 		20.947
v -2.606 		-13 		21.364
v 2.822 		-15 		20.561
v -2.443 		-13.126 		20.947
v 2.797 		-14.632 		20.561
v 0.2088 		-16.581 		19.5552
v -2.845 		-13.358 		21.364
v 0.0747 		-16.5983 		19.5595
v 0.2845 		-16.5707 		19.5576
v -3.035 		-13.743 		21.364
v -2.667 		-13.461 		20.947
v 3.174 		-15.851 		21.364
v -2.845 		-13.822 		20.947
v 3.258 		-15.429 		21.364
v -2.974 		-14.203 		20.947
v -2.443 		-13.59 		20.561
v 3.036 		-16.258 		21.364
v -2.606 		-13.921 		20.561
v 2.846 		-16.179 		20.947
v -2.725 		-14.27 		20.561
v 2.975 		-15.797 		20.947
v 3.054 		-15.402 		20.947
v 2.725 		-15.731 		20.561
v 0.4863 		-16.524 		19.5591
v 0.6103 		-16.473 		19.555
v -3.173 		-14.15 		21.364
v 0.681 		-16.4434 		19.5574
v 1.718 		-16.318 		19.904
v -2.191 		-11.205 		8.819
v 1.875 		-16.083 		19.904
v -2.667 		-11.524 		8.819
v 3.099 		-11.902 		8.819
v 2.668 		-11.524 		8.819
v 2.191 		-11.205 		8.819
v 1.258 		-16.258 		19.646
v 3.1268 		-11.8774 		8.245
v 3.1249 		-11.8751 		8.245
v 2.6931 		-11.4961 		8.245
v 2.6909 		-11.4942 		8.245
v 2.2124 		-11.1738 		8.245
v 2.2099 		-11.1722 		8.245
v 1.411 		-16.083 		19.646
v -3.098 		-11.902 		8.819
v -2.2099 		-11.1722 		8.245
v -2.2072 		-11.1709 		8.245
v 2.042 		-11.464 		9.933
v -2.6874 		-11.4925 		8.245
v 1.563 		-11.228 		9.933
v -2.6899 		-11.4942 		8.245
v -3.1226 		-11.8732 		8.245
v -3.1249 		-11.8751 		8.245
v 1.057 		-11.056 		9.933
v 0.533 		-10.952 		9.933
v -3.525 		-15 		22.261
v -3.495 		-14.54 		22.261
v -3.434 		-15 		21.805
v 1.634 		-11.056 		9.386
v -3.405 		-14.552 		21.805
v 1.105 		-10.876 		9.386
v 0.557 		-10.767 		9.386
v -3.495 		-15.461 		22.261
v -3.405 		-15.913 		22.261
v 1.677 		-10.952 		8.819
v -3.257 		-16.35 		22.261
v 1.134 		-10.767 		8.819
v 0.572 		-10.656 		8.819
v -3.405 		-15.449 		21.805
v -3.317 		-15.889 		21.805
v 1.6936 		-10.9185 		8.245
v 1.6909 		-10.9172 		8.245
v -0.0013 		-12.6336 		11.9652
v -3.173 		-16.315 		21.805
v 1.1468 		-10.7321 		8.245
v -0.1088 		-12.6483 		11.9702
v -0.3057 		-12.6752 		11.9795
v 1.1439 		-10.7312 		8.245
v 0.577 		-10.6182 		8.245
v 0.5799 		-10.6188 		8.245
v -0.351 		-12.333 		11.748
v 0.003 		-10.5804 		8.245
v -0.4086 		-12.6884 		11.9748
v -0.6123 		-12.7143 		11.9655
v -3.285 		-15 		21.364
v -0.696 		-12.401 		11.748
v -3.257 		-14.572 		21.364
v -0.713 		-12.7567 		11.9706
v -0.8971 		-12.8341 		11.9801
v -3.079 		-15 		20.947
v -3.053 		-14.598 		20.947
v -0.6124 		-12.7144 		11.9654
v -0.6136 		-12.7149 		11.9655
v -0.9928 		-12.8733 		11.9753
v -2.821 		-15 		20.561
v 4.124 		-13.895 		9.386
v 4.233 		-13.866 		8.819
v -2.797 		-14.632 		20.561
v 4.2694 		-13.859 		8.245
v -1.1828 		-12.9511 		11.9656
v -3.173 		-15.851 		21.364
v 1.0314 		-16.2183 		19.5574
v 0.8638 		-16.3465 		19.5593
v 0.9709 		-16.2649 		19.5551
v 1.183 		-16.0772 		19.5592
v 1.2649 		-15.9709 		19.5551
v 1.3112 		-15.9101 		19.5574
v 1.4212 		-15.734 		19.5592
v 1.473 		-15.6103 		19.555
v 1.502 		-15.54 		19.5574
v 1.581 		-15.2082 		19.5552
v 1.563 		-15.3418 		19.5592
v 1.5908 		-15.1326 		19.5578
v 1.5811 		-14.7922 		19.5553
v 1.5983 		-14.9257 		19.5595
v 1.5709 		-14.7165 		19.5576
v 4.2688 		-13.8561 		8.245
v 4.124 		-16.105 		9.386
v 4.233 		-15.557 		9.386
v 4.269 		-15 		9.386
v 4.233 		-14.443 		9.386
v 4.233 		-16.134 		8.819
v 4.344 		-15.572 		8.819
v 4.382 		-15 		8.819
v 4.344 		-14.428 		8.819
v 4.2679 		-16.1468 		8.245
v 4.2688 		-16.1439 		8.245
v 4.3818 		-15.577 		8.245
v 4.3812 		-15.5799 		8.245
v 4.4196 		-15.003 		8.245
v 4.4198 		-15 		8.245
v 4.382 		-14.426 		8.245
v 4.3818 		-14.423 		8.245
v 2.479 		-13.098 		11.367
v 2.21 		-12.79 		11.367
v 2.599 		-14.304 		11.748
v 2.2432 		-14.2868 		11.9707
v 2.1658 		-14.1027 		11.9802
v 2.486 		-13.97 		11.748
v 2.1267 		-14.0072 		11.9753
v 2.0489 		-13.8172 		11.9656
v 2.0489 		-13.8172 		11.9656
v 2.33 		-13.655 		11.748
v 2.135 		-13.362 		11.748
v 2.048 		-13.8162 		11.9657
v 3.019 		-14.191 		11.367
v 2.887 		-13.804 		11.367
v 2.707 		-13.437 		11.367
v 3.037 		-13.247 		10.933
v 2.782 		-12.865 		10.933
v 3.315 		-13.086 		10.452
# 1434 vertices

g group_0_16089887

usemtl color_16089887
s 0

f 2 	1 	3
f 6 	5 	4
f 4 	3 	6
f 2 	3 	7
f 3 	4 	7
f 14 	1278 	10
f 11 	9 	6
f 5 	6 	9
f 11 	8 	9
f 11 	10 	8
f 14 	11 	12
f 10 	11 	14
f 3 	35 	6
f 863 	696 	18
f 19 	863 	16
f 20 	21 	902
f 16 	863 	15
f 19 	20 	863
f 15 	26 	16
f 863 	18 	15
f 18 	27 	15
f 17 	27 	18
f 22 	902 	21
f 19 	28 	20
f 28 	19 	26
f 16 	26 	19
f 902 	22 	23
f 24 	902 	23
f 22 	28 	23
f 21 	28 	22
f 24 	29 	25
f 1 	25 	3
f 26 	15 	27
f 21 	20 	28
f 23 	28 	29
f 28 	32 	33
f 28 	33 	29
f 23 	29 	24
f 3 	25 	29
f 27 	30 	31
f 27 	31 	26
f 32 	28 	26
f 26 	31 	32
f 32 	37 	33
f 32 	36 	37
f 34 	3 	29
f 29 	33 	34
f 34 	35 	3
f 36 	32 	31
f 30 	40 	31
f 40 	30 	41
f 31 	40 	36
f 33 	38 	34
f 33 	37 	38
f 35 	34 	1262
f 1265 	35 	1262
f 40 	44 	36
f 37 	39 	38
f 41 	42 	40
f 41 	43 	42
f 40 	42 	44
f 36 	45 	37
f 36 	44 	45
f 45 	39 	37
f 219 	42 	43
f 46 	55 	48
f 46 	48 	49
f 46 	49 	47
f 50 	54 	51
f 50 	53 	54
f 51 	54 	55
f 51 	55 	52
f 46 	52 	55
f 1169 	879 	62
f 65 	879 	64
f 60 	67 	61
f 1320 	59 	68
f 66 	69 	879
f 71 	879 	70
f 879 	73 	75
f 1095 	879 	81
f 78 	81 	879
f 1387 	679 	1386
f 79 	60 	1373
f 60 	84 	67
f 53 	86 	54
f 79 	84 	60
f 84 	85 	67
f 48 	55 	90
f 67 	85 	74
f 53 	208 	86
f 54 	86 	89
f 86 	99 	89
f 79 	200 	84
f 54 	89 	55
f 90 	55 	89
f 91 	48 	90
f 90 	102 	103
f 90 	103 	91
f 48 	91 	49
f 98 	86 	95
f 208 	95 	86
f 100 	89 	99
f 99 	86 	98
f 90 	101 	102
f 101 	90 	89
f 89 	100 	101
f 98 	95 	1047
f 99 	98 	1047
f 83 	879 	82
f 1095 	82 	879
f 879 	105 	107
f 109 	879 	108
f 97 	110 	113
f 1082 	879 	114
f 110 	1146 	1149
f 110 	1149 	113
f 133 	134 	879
f 136 	879 	135
f 879 	138 	139
f 120 	1116 	1019
f 129 	137 	124
f 124 	137 	126
f 123 	126 	137
f 879 	143 	144
f 106 	137 	132
f 129 	128 	137
f 148 	149 	879
f 145 	1146 	110
f 879 	154 	157
f 161 	158 	153
f 155 	161 	153
f 1189 	879 	163
f 162 	163 	879
f 161 	155 	156
f 165 	879 	164
f 1189 	164 	879
f 167 	158 	169
f 158 	167 	166
f 1186 	879 	170
f 169 	318 	167
f 175 	177 	879
f 879 	182 	183
f 184 	161 	181
f 178 	549 	174
f 184 	187 	161
f 879 	188 	189
f 1225 	879 	189
f 191 	879 	190
f 1225 	190 	879
f 1221 	879 	193
f 192 	193 	879
f 161 	187 	158
f 1221 	194 	879
f 1218 	879 	197
f 197 	879 	196
f 1218 	198 	879
f 551 	178 	176
f 57 	58 	879
f 58 	62 	879
f 1169 	64 	879
f 104 	91 	103
f 145 	1157 	1146
f 100 	99 	1047
f 1056 	1047 	95
f 95 	213 	1056
f 213 	214 	1056
f 207 	988 	264
f 231 	206 	204
f 202 	209 	203
f 205 	212 	207
f 204 	206 	208
f 329 	330 	201
f 204 	208 	53
f 205 	207 	264
f 203 	205 	264
f 212 	205 	203
f 241 	210 	206
f 203 	209 	212
f 213 	208 	214
f 206 	214 	208
f 206 	211 	214
f 208 	213 	95
f 214 	211 	1056
f 211 	210 	1056
f 1055 	1056 	210
f 210 	250 	1055
f 39 	45 	225
f 225 	50 	39
f 43 	218 	219
f 212 	209 	220
f 209 	217 	220
f 222 	44 	42
f 42 	219 	222
f 215 	221 	223
f 44 	222 	224
f 215 	223 	216
f 1434 	216 	223
f 224 	45 	44
f 225 	45 	224
f 923 	223 	221
f 922 	923 	221
f 227 	218 	226
f 218 	227 	219
f 222 	219 	229
f 219 	227 	229
f 217 	228 	230
f 231 	222 	229
f 217 	230 	220
f 231 	224 	222
f 231 	204 	224
f 230 	228 	234
f 224 	204 	225
f 225 	53 	50
f 225 	204 	53
f 228 	232 	234
f 227 	239 	229
f 232 	238 	234
f 232 	669 	238
f 236 	237 	226
f 236 	243 	237
f 236 	245 	243
f 226 	237 	227
f 227 	237 	239
f 88 	240 	235
f 237 	242 	246
f 237 	246 	239
f 229 	241 	231
f 229 	239 	241
f 1155 	238 	669
f 206 	231 	241
f 242 	237 	243
f 239 	246 	247
f 239 	247 	249
f 246 	242 	1055
f 241 	249 	250
f 248 	274 	251
f 239 	249 	241
f 241 	250 	210
f 85 	556 	340
f 253 	277 	255
f 254 	279 	258
f 260 	281 	261
f 264 	261 	283
f 262 	273 	265
f 265 	275 	266
f 255 	264 	251
f 253 	255 	251
f 254 	258 	255
f 264 	255 	258
f 260 	261 	258
f 264 	258 	261
f 268 	274 	244
f 267 	278 	269
f 257 	271 	272
f 349 	264 	350
f 731 	718 	614
f 257 	272 	256
f 248 	244 	274
f 275 	265 	273
f 256 	276 	259
f 274 	277 	251
f 275 	278 	266
f 272 	276 	256
f 477 	259 	276
f 251 	277 	253
f 266 	278 	267
f 255 	279 	254
f 259 	477 	263
f 277 	279 	255
f 279 	281 	258
f 280 	282 	273
f 258 	281 	260
f 283 	261 	281
f 273 	282 	275
f 281 	288 	283
f 268 	284 	274
f 268 	270 	284
f 284 	285 	274
f 284 	488 	285
f 274 	285 	277
f 285 	286 	277
f 286 	279 	277
f 279 	287 	281
f 286 	287 	279
f 287 	288 	281
f 128 	132 	137
f 123 	440 	290
f 294 	293 	440
f 289 	294 	440
f 440 	293 	292
f 292 	291 	440
f 291 	290 	440
f 1059 	296 	295
f 296 	908 	295
f 289 	908 	296
f 295 	908 	297
f 298 	908 	299
f 297 	908 	298
f 301 	300 	395
f 394 	395 	300
f 302 	301 	395
f 304 	303 	395
f 303 	302 	395
f 305 	304 	395
f 282 	308 	275
f 201 	318 	329
f 278 	275 	308
f 167 	318 	201
f 316 	282 	280
f 280 	1357 	312
f 312 	1357 	56
f 312 	316 	280
f 312 	320 	316
f 319 	320 	312
f 311 	307 	315
f 56 	319 	312
f 56 	74 	319
f 306 	307 	314
f 315 	307 	317
f 313 	307 	311
f 313 	314 	307
f 310 	317 	307
f 249 	247 	1055
f 242 	243 	1055
f 323 	272 	324
f 211 	206 	210
f 250 	249 	1055
f 247 	246 	1055
f 815 	1055 	243
f 245 	815 	243
f 321 	343 	322
f 324 	325 	309
f 324 	309 	323
f 310 	309 	325
f 326 	309 	327
f 323 	309 	326
f 331 	327 	309
f 169 	329 	318
f 329 	169 	330
f 321 	330 	169
f 346 	519 	332
f 519 	363 	935
f 397 	752 	396
f 343 	321 	169
f 409 	862 	405
f 334 	169 	158
f 158 	187 	334
f 334 	338 	169
f 17 	862 	409
f 833 	316 	320
f 399 	334 	187
f 340 	319 	74
f 74 	85 	340
f 319 	835 	320
f 352 	355 	935
f 355 	367 	935
f 344 	361 	345
f 345 	362 	341
f 342 	209 	202
f 346 	363 	519
f 341 	362 	342
f 365 	935 	363
f 341 	264 	345
f 342 	264 	341
f 365 	352 	935
f 322 	343 	332
f 347 	332 	343
f 349 	350 	374
f 348 	372 	350
f 349 	374 	351
f 346 	332 	347
f 345 	264 	344
f 351 	264 	349
f 344 	264 	351
f 354 	596 	353
f 441 	935 	367
f 356 	353 	597
f 356 	597 	359
f 358 	370 	360
f 352 	357 	355
f 264 	614 	359
f 360 	264 	358
f 348 	264 	360
f 350 	264 	348
f 361 	344 	351
f 345 	361 	362
f 209 	342 	362
f 361 	366 	362
f 364 	366 	361
f 352 	347 	357
f 362 	366 	217
f 347 	363 	346
f 217 	366 	228
f 363 	347 	365
f 352 	365 	347
f 362 	217 	209
f 355 	357 	367
f 368 	367 	357
f 364 	667 	366
f 366 	667 	228
f 338 	343 	169
f 359 	370 	358
f 343 	369 	347
f 343 	338 	369
f 369 	371 	347
f 372 	360 	370
f 347 	371 	357
f 360 	372 	348
f 357 	373 	368
f 371 	373 	357
f 373 	460 	368
f 374 	350 	372
f 374 	361 	351
f 368 	460 	457
f 370 	380 	372
f 379 	386 	908
f 386 	387 	908
f 370 	377 	380
f 306 	305 	395
f 326 	276 	272
f 381 	374 	372
f 381 	372 	380
f 374 	381 	364
f 378 	382 	379
f 379 	908 	378
f 383 	384 	840
f 378 	376 	382
f 374 	364 	361
f 87 	385 	88
f 378 	570 	376
f 384 	385 	87
f 394 	908 	387
f 385 	482 	88
f 391 	307 	395
f 382 	388 	386
f 482 	240 	88
f 382 	386 	379
f 252 	263 	389
f 382 	400 	388
f 380 	443 	381
f 389 	383 	252
f 388 	387 	386
f 389 	390 	383
f 383 	390 	384
f 483 	384 	390
f 402 	752 	397
f 395 	388 	391
f 392 	391 	388
f 388 	394 	387
f 411 	412 	371
f 752 	402 	403
f 394 	388 	395
f 371 	412 	373
f 397 	396 	553
f 376 	398 	382
f 1100 	399 	187
f 393 	552 	396
f 401 	338 	334
f 400 	382 	398
f 400 	963 	388
f 405 	862 	404
f 399 	401 	334
f 401 	406 	338
f 397 	553 	402
f 404 	403 	553
f 403 	402 	553
f 407 	408 	399
f 404 	554 	405
f 399 	408 	401
f 405 	554 	409
f 401 	410 	406
f 408 	410 	401
f 766 	408 	407
f 766 	767 	408
f 408 	767 	410
f 421 	310 	307
f 406 	369 	338
f 369 	411 	371
f 436 	433 	742
f 369 	406 	411
f 434 	438 	742
f 431 	309 	430
f 393 	396 	752
f 413 	307 	391
f 416 	307 	413
f 410 	414 	406
f 391 	392 	413
f 415 	307 	416
f 406 	414 	411
f 415 	417 	307
f 417 	421 	307
f 414 	418 	411
f 416 	392 	419
f 413 	392 	416
f 411 	418 	412
f 420 	426 	328
f 427 	436 	328
f 415 	416 	419
f 415 	419 	417
f 423 	309 	422
f 430 	309 	423
f 422 	309 	421
f 424 	422 	419
f 425 	328 	426
f 422 	421 	419
f 417 	419 	421
f 425 	427 	328
f 392 	964 	419
f 698 	428 	426
f 698 	426 	420
f 425 	426 	428
f 428 	427 	425
f 422 	424 	423
f 429 	742 	438
f 434 	742 	433
f 430 	432 	431
f 437 	420 	619
f 423 	424 	430
f 432 	430 	424
f 707 	619 	706
f 711 	619 	707
f 433 	435 	434
f 742 	328 	436
f 436 	428 	433
f 427 	428 	436
f 435 	433 	428
f 973 	432 	424
f 438 	439 	429
f 698 	420 	437
f 698 	437 	708
f 437 	711 	708
f 566 	289 	565
f 377 	442 	380
f 450 	598 	449
f 380 	442 	443
f 381 	444 	364
f 381 	443 	444
f 364 	444 	667
f 453 	441 	452
f 453 	454 	441
f 582 	456 	458
f 449 	582 	458
f 582 	449 	598
f 598 	450 	446
f 447 	598 	446
f 447 	446 	448
f 448 	446 	451
f 449 	451 	450
f 450 	451 	446
f 452 	441 	367
f 368 	452 	367
f 456 	582 	455
f 455 	368 	457
f 368 	453 	452
f 455 	454 	368
f 454 	453 	368
f 456 	455 	457
f 456 	457 	458
f 451 	458 	457
f 457 	459 	451
f 460 	459 	457
f 449 	458 	451
f 715 	448 	451
f 463 	461 	447
f 598 	447 	461
f 462 	461 	463
f 464 	469 	461
f 462 	464 	461
f 463 	465 	462
f 465 	464 	462
f 465 	463 	448
f 447 	448 	463
f 607 	469 	466
f 467 	705 	607
f 468 	467 	466
f 607 	461 	469
f 465 	468 	466
f 1215 	879 	127
f 565 	289 	564
f 335 	336 	931
f 336 	337 	931
f 331 	931 	337
f 339 	931 	470
f 335 	931 	339
f 115 	116 	879
f 131 	879 	130
f 333 	155 	472
f 472 	155 	473
f 485 	390 	389
f 263 	478 	389
f 478 	263 	477
f 271 	324 	272
f 879 	159 	160
f 271 	479 	325
f 271 	325 	324
f 323 	326 	272
f 327 	276 	326
f 480 	276 	327
f 276 	336 	477
f 335 	477 	336
f 337 	336 	276
f 480 	337 	276
f 335 	339 	477
f 173 	879 	172
f 470 	478 	339
f 481 	478 	470
f 477 	339 	478
f 473 	478 	472
f 481 	472 	478
f 478 	473 	485
f 474 	485 	473
f 385 	384 	483
f 482 	385 	484
f 484 	385 	483
f 487 	488 	284
f 478 	485 	389
f 483 	390 	486
f 486 	390 	485
f 486 	494 	483
f 286 	490 	287
f 486 	516 	494
f 483 	494 	484
f 487 	284 	270
f 270 	515 	487
f 285 	489 	286
f 488 	489 	285
f 476 	486 	475
f 489 	490 	286
f 474 	475 	485
f 491 	482 	484
f 287 	492 	288
f 490 	492 	287
f 495 	488 	487
f 484 	496 	491
f 495 	497 	488
f 484 	494 	496
f 496 	498 	491
f 488 	497 	489
f 491 	498 	493
f 489 	499 	490
f 497 	499 	489
f 499 	500 	490
f 499 	508 	500
f 485 	475 	486
f 501 	486 	476
f 502 	516 	486
f 501 	502 	486
f 490 	500 	492
f 517 	494 	516
f 495 	503 	497
f 505 	496 	504
f 494 	518 	496
f 606 	503 	495
f 503 	506 	497
f 505 	507 	496
f 506 	499 	497
f 506 	508 	499
f 509 	1301 	240
f 606 	611 	503
f 482 	509 	240
f 613 	508 	506
f 482 	491 	509
f 509 	493 	510
f 491 	493 	509
f 251 	264 	248
f 944 	244 	264
f 270 	1013 	515
f 493 	498 	513
f 474 	155 	475
f 475 	155 	476
f 474 	473 	155
f 504 	496 	518
f 517 	518 	494
f 516 	201 	517
f 502 	201 	516
f 471 	201 	502
f 518 	201 	504
f 517 	201 	518
f 511 	594 	512
f 594 	511 	521
f 520 	521 	511
f 530 	528 	595
f 498 	574 	575
f 522 	513 	575
f 523 	513 	522
f 575 	513 	498
f 879 	65 	66
f 513 	586 	514
f 586 	513 	524
f 523 	524 	513
f 520 	511 	525
f 548 	512 	528
f 527 	538 	536
f 879 	121 	122
f 529 	538 	527
f 512 	595 	528
f 531 	528 	530
f 609 	529 	608
f 528 	608 	529
f 1215 	130 	879
f 532 	608 	528
f 531 	532 	528
f 131 	133 	879
f 533 	538 	534
f 534 	538 	610
f 529 	610 	538
f 609 	610 	529
f 533 	535 	538
f 879 	140 	141
f 536 	537 	556
f 536 	539 	537
f 538 	539 	536
f 539 	540 	537
f 438 	435 	541
f 435 	438 	434
f 542 	540 	543
f 539 	627 	540
f 626 	627 	539
f 736 	540 	544
f 542 	544 	540
f 541 	439 	438
f 540 	736 	861
f 733 	861 	736
f 439 	545 	429
f 546 	429 	545
f 393 	752 	547
f 174 	548 	171
f 548 	174 	549
f 439 	541 	545
f 546 	541 	547
f 545 	541 	546
f 552 	547 	541
f 550 	176 	510
f 510 	493 	550
f 550 	551 	176
f 393 	547 	552
f 551 	549 	178
f 435 	557 	559
f 549 	511 	512
f 541 	435 	559
f 549 	512 	548
f 560 	541 	559
f 541 	560 	552
f 550 	493 	513
f 550 	513 	514
f 551 	550 	514
f 553 	396 	552
f 551 	511 	549
f 404 	553 	554
f 514 	511 	551
f 555 	85 	84
f 553 	562 	554
f 200 	555 	84
f 556 	85 	555
f 409 	554 	27
f 409 	27 	17
f 704 	557 	428
f 200 	171 	558
f 428 	557 	435
f 548 	558 	171
f 527 	200 	558
f 528 	558 	548
f 200 	527 	555
f 552 	561 	553
f 536 	555 	527
f 552 	560 	561
f 562 	553 	561
f 440 	564 	289
f 568 	289 	566
f 564 	440 	563
f 554 	30 	27
f 554 	562 	30
f 559 	569 	560
f 562 	41 	30
f 564 	1427 	565
f 567 	559 	557
f 565 	376 	566
f 557 	797 	567
f 569 	559 	567
f 570 	908 	568
f 376 	568 	566
f 560 	569 	571
f 568 	376 	570
f 569 	690 	571
f 507 	572 	496
f 442 	445 	573
f 498 	572 	574
f 496 	572 	498
f 442 	573 	443
f 443 	576 	444
f 572 	507 	935
f 443 	573 	576
f 574 	935 	575
f 519 	935 	507
f 574 	572 	935
f 445 	578 	573
f 575 	935 	522
f 445 	577 	578
f 670 	573 	578
f 670 	576 	573
f 586 	584 	514
f 375 	583 	377
f 375 	581 	583
f 442 	377 	583
f 580 	585 	581
f 584 	588 	514
f 587 	585 	580
f 581 	585 	589
f 514 	588 	511
f 525 	511 	588
f 585 	592 	589
f 581 	589 	583
f 583 	445 	442
f 588 	441 	525
f 589 	445 	583
f 587 	590 	591
f 591 	585 	587
f 592 	585 	591
f 586 	524 	441
f 441 	584 	586
f 589 	592 	577
f 592 	591 	714
f 579 	441 	524
f 589 	577 	445
f 584 	441 	588
f 594 	593 	512
f 593 	595 	512
f 597 	353 	596
f 593 	594 	598
f 370 	359 	597
f 596 	375 	597
f 598 	595 	593
f 594 	521 	598
f 582 	598 	521
f 596 	599 	375
f 597 	375 	377
f 597 	377 	370
f 599 	580 	581
f 599 	581 	375
f 604 	530 	598
f 578 	577 	672
f 672 	673 	578
f 713 	682 	681
f 600 	663 	664
f 664 	601 	600
f 602 	603 	515
f 595 	598 	530
f 515 	603 	487
f 495 	487 	603
f 602 	605 	603
f 605 	606 	603
f 606 	495 	603
f 532 	461 	608
f 612 	506 	503
f 609 	461 	610
f 604 	461 	532
f 611 	612 	503
f 506 	612 	613
f 610 	461 	534
f 608 	461 	609
f 1039 	1041 	611
f 611 	1041 	612
f 613 	612 	257
f 614 	264 	283
f 629 	1237 	622
f 618 	630 	621
f 620 	631 	622
f 617 	619 	328
f 538 	535 	624
f 623 	632 	625
f 538 	624 	539
f 626 	539 	624
f 625 	615 	622
f 625 	757 	615
f 543 	540 	627
f 615 	757 	616
f 1238 	1240 	622
f 628 	629 	622
f 616 	628 	622
f 623 	625 	622
f 616 	622 	615
f 1237 	1238 	622
f 830 	629 	628
f 607 	619 	535
f 614 	630 	618
f 624 	619 	626
f 630 	614 	283
f 617 	543 	619
f 631 	620 	621
f 627 	619 	543
f 621 	630 	631
f 631 	632 	622
f 626 	619 	627
f 624 	535 	619
f 631 	763 	632
f 879 	76 	77
f 645 	123 	137
f 641 	638 	137
f 125 	879 	122
f 125 	127 	879
f 635 	905 	636
f 633 	636 	905
f 71 	73 	879
f 636 	633 	634
f 636 	634 	637
f 77 	78 	879
f 637 	635 	636
f 639 	642 	137
f 638 	639 	137
f 879 	111 	112
f 638 	640 	639
f 879 	116 	117
f 117 	119 	879
f 640 	638 	637
f 635 	637 	641
f 638 	641 	637
f 643 	137 	642
f 645 	137 	644
f 640 	1419 	642
f 640 	642 	639
f 642 	1419 	643
f 168 	170 	879
f 643 	644 	137
f 1186 	172 	879
f 1419 	644 	643
f 645 	644 	1419
f 634 	600 	637
f 640 	637 	601
f 600 	601 	637
f 560 	571 	561
f 797 	646 	567
f 651 	650 	649
f 865 	647 	652
f 652 	653 	865
f 647 	648 	652
f 651 	649 	648
f 652 	648 	653
f 653 	648 	649
f 659 	905 	656
f 654 	651 	657
f 651 	654 	650
f 651 	661 	657
f 657 	655 	654
f 657 	656 	655
f 658 	633 	905
f 658 	634 	633
f 659 	657 	658
f 634 	658 	657
f 659 	656 	657
f 651 	648 	660
f 661 	651 	660
f 657 	661 	662
f 657 	662 	634
f 634 	662 	600
f 661 	913 	662
f 663 	600 	662
f 663 	662 	913
f 215 	601 	664
f 913 	665 	663
f 663 	665 	666
f 665 	1044 	666
f 663 	666 	664
f 664 	666 	221
f 664 	221 	215
f 665 	1043 	1044
f 666 	922 	221
f 555 	536 	556
f 529 	558 	528
f 558 	529 	527
f 668 	667 	444
f 667 	232 	228
f 667 	668 	232
f 668 	669 	232
f 668 	671 	669
f 444 	576 	668
f 576 	670 	671
f 668 	576 	671
f 670 	578 	673
f 671 	674 	675
f 675 	669 	671
f 674 	671 	670
f 670 	673 	674
f 1155 	669 	675
f 672 	677 	673
f 672 	676 	677
f 674 	673 	678
f 673 	677 	678
f 676 	679 	677
f 678 	677 	1320
f 677 	679 	1320
f 693 	1386 	679
f 681 	689 	683
f 569 	688 	690
f 680 	684 	676
f 685 	562 	561
f 571 	685 	561
f 680 	676 	672
f 41 	562 	685
f 682 	686 	687
f 687 	681 	682
f 569 	567 	688
f 646 	688 	567
f 689 	681 	687
f 683 	689 	691
f 687 	1294 	689
f 692 	685 	571
f 683 	691 	684
f 690 	692 	571
f 684 	691 	693
f 685 	692 	43
f 691 	1312 	693
f 685 	43 	41
f 684 	693 	676
f 693 	679 	676
f 646 	805 	688
f 686 	1293 	687
f 808 	690 	688
f 686 	694 	695
f 690 	812 	692
f 696 	689 	1294
f 697 	689 	696
f 689 	697 	699
f 700 	693 	702
f 1312 	691 	1310
f 700 	80 	693
f 704 	428 	698
f 465 	466 	469
f 698 	703 	704
f 469 	464 	465
f 706 	607 	705
f 328 	619 	420
f 607 	706 	619
f 468 	708 	705
f 468 	705 	467
f 704 	797 	557
f 701 	717 	709
f 706 	705 	708
f 710 	703 	701
f 707 	706 	708
f 590 	712 	591
f 712 	590 	713
f 708 	711 	707
f 591 	712 	714
f 459 	715 	451
f 592 	714 	680
f 683 	714 	712
f 448 	716 	465
f 680 	577 	592
f 448 	715 	716
f 577 	680 	672
f 716 	717 	465
f 712 	713 	681
f 712 	681 	683
f 465 	717 	468
f 714 	684 	680
f 714 	683 	684
f 701 	708 	468
f 701 	468 	717
f 708 	701 	703
f 730 	731 	614
f 708 	703 	698
f 715 	459 	756
f 715 	758 	716
f 719 	735 	720
f 718 	732 	719
f 759 	709 	717
f 720 	735 	721
f 720 	721 	614
f 721 	726 	614
f 726 	727 	614
f 727 	724 	614
f 373 	723 	460
f 373 	412 	723
f 737 	726 	721
f 723 	722 	460
f 727 	726 	737
f 358 	264 	359
f 460 	722 	459
f 727 	918 	724
f 724 	918 	725
f 723 	412 	729
f 356 	359 	614
f 724 	725 	614
f 354 	353 	614
f 725 	354 	614
f 353 	356 	614
f 412 	418 	729
f 729 	728 	723
f 723 	728 	722
f 919 	730 	269
f 718 	731 	732
f 730 	919 	731
f 718 	719 	614
f 719 	720 	614
f 735 	719 	732
f 721 	735 	737
f 734 	328 	526
f 732 	738 	739
f 738 	885 	886
f 738 	886 	739
f 732 	739 	735
f 735 	740 	737
f 735 	739 	740
f 736 	544 	328
f 737 	740 	741
f 736 	328 	733
f 617 	328 	544
f 734 	733 	328
f 744 	745 	429
f 739 	748 	740
f 747 	429 	750
f 740 	748 	749
f 740 	749 	741
f 742 	429 	745
f 744 	429 	743
f 580 	741 	749
f 746 	429 	747
f 743 	429 	746
f 748 	753 	749
f 748 	751 	753
f 749 	753 	587
f 749 	587 	580
f 751 	754 	755
f 751 	755 	753
f 753 	590 	587
f 753 	755 	590
f 622 	632 	623
f 757 	625 	632
f 632 	765 	757
f 722 	756 	459
f 763 	765 	632
f 756 	758 	715
f 717 	716 	759
f 283 	760 	630
f 758 	759 	716
f 283 	288 	760
f 760 	761 	630
f 631 	630 	761
f 762 	756 	722
f 761 	763 	631
f 728 	762 	722
f 762 	764 	756
f 762 	795 	764
f 756 	764 	758
f 761 	760 	770
f 761 	779 	763
f 768 	288 	492
f 766 	776 	767
f 410 	769 	414
f 288 	768 	760
f 767 	769 	410
f 768 	770 	760
f 414 	771 	418
f 779 	761 	770
f 769 	771 	414
f 492 	772 	768
f 771 	800 	418
f 500 	772 	492
f 772 	773 	768
f 418 	800 	729
f 768 	773 	770
f 500 	508 	775
f 774 	776 	766
f 775 	772 	500
f 772 	777 	773
f 767 	778 	769
f 775 	777 	772
f 776 	778 	767
f 778 	819 	769
f 819 	771 	769
f 848 	850 	775
f 782 	783 	776
f 776 	783 	778
f 763 	780 	765
f 779 	780 	763
f 774 	782 	776
f 765 	780 	834
f 701 	709 	710
f 796 	703 	710
f 781 	782 	774
f 782 	791 	783
f 790 	791 	782
f 704 	703 	796
f 797 	704 	796
f 784 	759 	758
f 758 	764 	784
f 785 	786 	781
f 759 	787 	709
f 786 	788 	781
f 787 	759 	784
f 787 	789 	709
f 790 	782 	788
f 781 	788 	782
f 792 	783 	791
f 709 	789 	710
f 789 	798 	710
f 792 	821 	783
f 900 	901 	784
f 788 	807 	790
f 786 	806 	788
f 785 	806 	786
f 728 	793 	794
f 901 	787 	784
f 729 	793 	728
f 728 	794 	762
f 794 	795 	762
f 796 	710 	798
f 796 	799 	797
f 796 	798 	799
f 797 	799 	646
f 800 	793 	729
f 789 	965 	798
f 798 	965 	970
f 825 	903 	795
f 798 	970 	799
f 801 	646 	799
f 800 	823 	793
f 805 	646 	801
f 808 	688 	805
f 812 	690 	808
f 692 	218 	43
f 692 	812 	218
f 785 	1336 	806
f 977 	972 	810
f 1113 	1114 	813
f 893 	1132 	814
f 790 	807 	791
f 801 	816 	805
f 896 	895 	814
f 814 	815 	898
f 245 	899 	815
f 804 	806 	1335
f 805 	816 	817
f 1336 	1335 	806
f 807 	788 	806
f 894 	893 	814
f 817 	808 	805
f 808 	817 	818
f 895 	894 	814
f 898 	896 	814
f 808 	818 	812
f 812 	226 	218
f 812 	818 	226
f 771 	819 	826
f 778 	820 	819
f 783 	820 	778
f 819 	967 	826
f 820 	967 	819
f 822 	820 	821
f 821 	820 	783
f 879 	198 	199
f 792 	807 	821
f 823 	824 	793
f 879 	146 	147
f 879 	150 	151
f 824 	794 	793
f 824 	825 	794
f 794 	825 	795
f 826 	800 	771
f 826 	823 	800
f 953 	954 	823
f 954 	960 	824
f 266 	267 	614
f 770 	827 	779
f 773 	827 	770
f 836 	780 	779
f 830 	628 	616
f 757 	830 	616
f 831 	830 	757
f 831 	757 	765
f 316 	832 	282
f 316 	833 	832
f 1240 	1241 	622
f 831 	765 	834
f 835 	319 	340
f 828 	320 	835
f 827 	836 	779
f 837 	780 	836
f 833 	320 	828
f 780 	837 	834
f 829 	833 	828
f 837 	235 	834
f 88 	235 	837
f 777 	838 	773
f 773 	838 	827
f 836 	827 	840
f 838 	840 	827
f 837 	836 	87
f 840 	87 	836
f 841 	842 	839
f 88 	837 	87
f 777 	775 	850
f 838 	383 	840
f 840 	384 	87
f 1270 	629 	830
f 830 	831 	1275
f 845 	841 	860
f 841 	846 	842
f 831 	233 	1275
f 845 	846 	841
f 842 	846 	847
f 233 	831 	834
f 834 	235 	233
f 843 	842 	847
f 843 	686 	682
f 843 	847 	686
f 848 	775 	508
f 849 	844 	526
f 734 	526 	844
f 848 	508 	613
f 845 	744 	743
f 844 	744 	845
f 744 	844 	745
f 849 	745 	844
f 845 	743 	746
f 851 	846 	747
f 747 	846 	746
f 845 	746 	846
f 850 	252 	777
f 846 	888 	847
f 256 	848 	613
f 613 	257 	256
f 846 	851 	852
f 848 	259 	850
f 847 	887 	889
f 256 	259 	848
f 259 	263 	850
f 853 	686 	889
f 694 	686 	853
f 847 	889 	686
f 850 	263 	252
f 252 	838 	777
f 252 	383 	838
f 828 	835 	855
f 855 	856 	828
f 855 	859 	856
f 856 	829 	828
f 879 	185 	186
f 856 	857 	829
f 537 	858 	854
f 537 	540 	858
f 854 	858 	855
f 858 	859 	855
f 859 	860 	856
f 857 	856 	860
f 857 	841 	839
f 860 	841 	857
f 540 	861 	858
f 858 	861 	859
f 859 	844 	860
f 861 	844 	859
f 844 	845 	860
f 861 	734 	844
f 733 	734 	861
f 340 	556 	854
f 556 	537 	854
f 854 	835 	340
f 854 	855 	835
f 289 	296 	874
f 301 	875 	300
f 879 	179 	180
f 126 	123 	873
f 123 	290 	873
f 294 	289 	874
f 300 	875 	299
f 879 	194 	195
f 306 	876 	305
f 306 	314 	876
f 317 	310 	479
f 878 	870 	877
f 870 	871 	877
f 106 	132 	880
f 106 	880 	872
f 865 	881 	864
f 881 	865 	867
f 869 	882 	868
f 869 	883 	882
f 59 	63 	866
f 930 	755 	754
f 884 	909 	885
f 816 	891 	817
f 887 	847 	888
f 817 	892 	818
f 846 	852 	888
f 817 	891 	892
f 236 	226 	818
f 862 	853 	752
f 891 	816 	890
f 890 	893 	894
f 888 	852 	752
f 818 	892 	236
f 888 	752 	887
f 896 	891 	895
f 890 	895 	891
f 890 	894 	895
f 898 	897 	892
f 891 	898 	892
f 891 	896 	898
f 892 	897 	899
f 887 	752 	889
f 245 	236 	899
f 892 	899 	236
f 750 	752 	852
f 1132 	1131 	814
f 813 	814 	1131
f 1131 	1130 	813
f 899 	897 	815
f 898 	815 	897
f 764 	795 	900
f 889 	752 	853
f 900 	784 	764
f 695 	862 	18
f 903 	904 	900
f 900 	904 	901
f 900 	795 	903
f 787 	906 	789
f 748 	739 	886
f 300 	299 	908
f 832 	833 	907
f 832 	907 	884
f 300 	908 	394
f 909 	884 	907
f 885 	911 	886
f 909 	911 	885
f 660 	910 	912
f 886 	911 	751
f 910 	915 	912
f 660 	912 	661
f 751 	911 	754
f 913 	661 	912
f 886 	751 	748
f 907 	833 	829
f 907 	914 	909
f 907 	829 	914
f 916 	909 	914
f 915 	910 	1254
f 912 	917 	913
f 912 	915 	917
f 913 	917 	665
f 911 	909 	916
f 911 	916 	754
f 1254 	1005 	915
f 915 	1042 	917
f 914 	829 	857
f 914 	857 	839
f 927 	754 	916
f 105 	879 	83
f 727 	737 	918
f 111 	879 	109
f 725 	596 	354
f 725 	918 	596
f 650 	869 	649
f 655 	869 	654
f 737 	741 	918
f 918 	741 	599
f 741 	580 	599
f 918 	599 	596
f 269 	278 	919
f 278 	920 	919
f 732 	731 	919
f 920 	278 	308
f 647 	865 	921
f 136 	138 	879
f 919 	920 	738
f 869 	868 	653
f 649 	869 	653
f 13 	1223 	921
f 141 	142 	879
f 920 	885 	738
f 919 	738 	732
f 188 	879 	142
f 308 	282 	832
f 648 	647 	921
f 192 	879 	191
f 884 	920 	308
f 922 	666 	1044
f 196 	879 	195
f 920 	884 	885
f 223 	923 	924
f 884 	308 	832
f 143 	879 	199
f 148 	879 	147
f 916 	839 	927
f 152 	879 	151
f 152 	154 	879
f 842 	843 	927
f 160 	162 	879
f 165 	168 	879
f 916 	914 	839
f 923 	922 	926
f 310 	421 	309
f 173 	175 	879
f 923 	928 	924
f 923 	926 	928
f 431 	1356 	309
f 924 	928 	929
f 754 	927 	930
f 331 	1356 	931
f 879 	180 	182
f 927 	843 	930
f 333 	470 	931
f 925 	924 	929
f 186 	57 	879
f 755 	930 	713
f 929 	1255 	925
f 330 	519 	201
f 930 	682 	713
f 57 	933 	58
f 755 	713 	590
f 926 	942 	928
f 933 	62 	58
f 839 	842 	927
f 330 	321 	519
f 64 	934 	65
f 579 	522 	935
f 934 	66 	65
f 926 	940 	942
f 934 	69 	66
f 579 	935 	441
f 70 	936 	71
f 682 	930 	843
f 928 	946 	929
f 936 	73 	71
f 936 	75 	73
f 76 	939 	77
f 77 	939 	78
f 604 	598 	461
f 939 	81 	78
f 82 	943 	83
f 607 	534 	461
f 83 	943 	105
f 943 	107 	105
f 108 	932 	109
f 928 	942 	946
f 109 	932 	111
f 942 	998 	946
f 742 	526 	328
f 942 	997 	998
f 111 	932 	112
f 945 	1006 	947
f 932 	114 	112
f 115 	948 	116
f 947 	1007 	937
f 546 	750 	429
f 948 	117 	116
f 546 	547 	752
f 750 	546 	752
f 938 	1009 	941
f 948 	119 	117
f 403 	404 	862
f 937 	1007 	938
f 862 	752 	403
f 121 	950 	122
f 244 	944 	268
f 941 	1009 	944
f 268 	944 	1009
f 953 	975 	954
f 93 	955 	951
f 947 	937 	264
f 941 	264 	938
f 938 	264 	937
f 248 	264 	244
f 953 	976 	975
f 956 	144 	143
f 823 	954 	824
f 957 	1015 	959
f 1250 	92 	1246
f 972 	977 	954
f 92 	1250 	955
f 954 	977 	960
f 961 	1017 	962
f 960 	825 	824
f 400 	991 	963
f 963 	392 	388
f 787 	901 	906
f 947 	264 	945
f 959 	961 	264
f 962 	264 	961
f 906 	965 	789
f 963 	964 	392
f 964 	968 	419
f 966 	1178 	969
f 826 	953 	823
f 968 	424 	419
f 983 	965 	906
f 967 	953 	826
f 954 	975 	972
f 965 	983 	986
f 968 	973 	424
f 965 	986 	970
f 971 	1179 	974
f 974 	957 	264
f 974 	264 	971
f 959 	264 	957
f 801 	799 	970
f 977 	979 	960
f 975 	976 	809
f 906 	901 	980
f 904 	980 	901
f 981 	982 	967
f 963 	993 	964
f 981 	967 	820
f 820 	822 	981
f 906 	980 	983
f 982 	985 	967
f 791 	807 	792
f 966 	264 	984
f 973 	968 	1000
f 976 	953 	985
f 967 	985 	953
f 400 	398 	987
f 976 	985 	809
f 982 	981 	809
f 985 	982 	809
f 981 	822 	807
f 821 	807 	822
f 807 	809 	981
f 970 	986 	1120
f 987 	991 	400
f 988 	1191 	990
f 989 	1195 	992
f 992 	978 	264
f 991 	993 	963
f 1233 	991 	987
f 1233 	1236 	991
f 994 	940 	949
f 991 	1236 	993
f 978 	1196 	984
f 968 	964 	995
f 986 	983 	1123
f 997 	942 	996
f 940 	996 	942
f 940 	994 	996
f 202 	203 	264
f 990 	264 	988
f 990 	989 	264
f 992 	264 	989
f 984 	264 	978
f 969 	264 	966
f 998 	999 	946
f 964 	993 	995
f 1124 	986 	1123
f 960 	1104 	1001
f 946 	999 	1321
f 620 	622 	1241
f 962 	945 	264
f 941 	944 	264
f 1001 	903 	825
f 969 	971 	264
f 1002 	904 	903
f 202 	264 	342
f 269 	730 	614
f 267 	269 	614
f 1001 	1002 	903
f 996 	1052 	997
f 994 	1052 	996
f 997 	1052 	998
f 1002 	1003 	904
f 998 	1052 	999
f 1110 	1003 	1109
f 1002 	1109 	1003
f 515 	1013 	1004
f 945 	962 	1006
f 515 	1004 	602
f 1007 	947 	1006
f 1004 	1022 	1008
f 1009 	938 	1007
f 1004 	1008 	602
f 1006 	1012 	1007
f 1006 	1011 	1012
f 1007 	1012 	1013
f 1007 	1013 	1009
f 1009 	270 	268
f 1013 	270 	1009
f 1011 	1022 	1012
f 1012 	1004 	1013
f 1008 	1014 	1016
f 974 	1015 	957
f 974 	1179 	1015
f 959 	1015 	1017
f 1008 	1016 	602
f 605 	602 	1016
f 1015 	1020 	1017
f 961 	959 	1017
f 1014 	1025 	1016
f 1017 	1006 	962
f 1014 	1024 	1025
f 1018 	1015 	1179
f 1020 	1015 	1018
f 1017 	1011 	1006
f 1017 	1020 	1011
f 1030 	1011 	1020
f 1004 	1012 	1022
f 1023 	1022 	1030
f 1021 	1057 	1050
f 1024 	1014 	1010
f 1022 	1023 	1008
f 1014 	1008 	1023
f 1026 	1016 	1025
f 1014 	1023 	1010
f 1025 	1031 	1026
f 1026 	605 	1016
f 1018 	1027 	1028
f 1024 	1058 	1029
f 1018 	1028 	1020
f 1029 	1025 	1024
f 1031 	1025 	1029
f 1030 	1020 	1028
f 1022 	1011 	1030
f 1284 	1032 	1027
f 1027 	1033 	1028
f 1027 	1032 	1033
f 1028 	1033 	1035
f 1034 	606 	605
f 1033 	1040 	1035
f 1026 	1034 	605
f 1028 	1035 	1030
f 1034 	611 	606
f 1035 	1023 	1030
f 611 	1034 	1039
f 1037 	1039 	1034
f 1037 	1034 	1026
f 1031 	1037 	1026
f 1032 	1038 	1033
f 1032 	1036 	1038
f 1045 	1046 	1039
f 1039 	1046 	1041
f 1042 	915 	1005
f 612 	1041 	257
f 917 	1042 	1043
f 917 	1043 	665
f 1037 	1031 	1134
f 1401 	1005 	47
f 1039 	1037 	1045
f 47 	49 	1401
f 1005 	1402 	1042
f 1401 	1402 	1005
f 1042 	1403 	1043
f 1043 	1404 	1044
f 1041 	271 	257
f 1046 	271 	1041
f 1044 	1404 	1379
f 1044 	1379 	922
f 1046 	315 	271
f 1024 	1010 	1050
f 1021 	1117 	1057
f 1050 	1057 	1058
f 1050 	1058 	1024
f 101 	100 	1047
f 1047 	1048 	101
f 1414 	1413 	1049
f 1051 	1415 	1049
f 1382 	1416 	1051
f 949 	1052 	994
f 1049 	1412 	1048
f 1409 	1048 	1410
f 1052 	949 	1051
f 1053 	1321 	1052
f 1057 	1059 	1058
f 949 	1400 	1051
f 803 	1363 	1054
f 1054 	1325 	1053
f 103 	102 	1048
f 146 	958 	147
f 104 	1048 	1409
f 958 	148 	147
f 104 	103 	1048
f 958 	149 	148
f 150 	952 	151
f 952 	152 	151
f 152 	952 	154
f 952 	157 	154
f 159 	1062 	160
f 1062 	162 	160
f 1062 	163 	162
f 164 	1064 	165
f 1064 	168 	165
f 184 	181 	1063
f 1064 	170 	168
f 172 	1065 	173
f 173 	1065 	175
f 1065 	177 	175
f 1060 	1071 	1061
f 179 	1066 	180
f 1073 	1063 	1061
f 180 	1066 	182
f 1066 	183 	182
f 185 	933 	186
f 1074 	184 	1063
f 933 	57 	186
f 122 	950 	125
f 950 	127 	125
f 130 	1069 	131
f 973 	1068 	1060
f 131 	1069 	133
f 1069 	134 	133
f 135 	1070 	136
f 1068 	973 	1000
f 136 	1070 	138
f 1068 	1071 	1060
f 1070 	139 	138
f 140 	1067 	141
f 141 	1067 	142
f 1067 	188 	142
f 1067 	189 	188
f 190 	1072 	191
f 1072 	192 	191
f 1073 	1061 	1071
f 1072 	193 	192
f 194 	1075 	195
f 1075 	197 	196
f 1075 	196 	195
f 198 	956 	199
f 1073 	1074 	1063
f 199 	956 	143
f 1074 	1100 	184
f 1076 	1077 	1078
f 119 	1078 	1077
f 119 	1077 	879
f 1077 	1076 	121
f 1077 	121 	879
f 1100 	187 	184
f 1048 	1047 	1078
f 1078 	948 	1048
f 1000 	1079 	1080
f 1078 	119 	948
f 950 	121 	1076
f 1083 	1084 	1082
f 1081 	1082 	1084
f 1068 	1000 	1080
f 1083 	1085 	1084
f 112 	114 	879
f 1083 	1082 	114
f 1083 	114 	1085
f 1080 	1086 	1068
f 1108 	1080 	1079
f 1082 	1081 	115
f 1082 	115 	879
f 1084 	1049 	1081
f 932 	1049 	1084
f 1068 	1086 	1071
f 1084 	1085 	932
f 1085 	114 	932
f 1071 	1087 	1073
f 948 	115 	1081
f 1088 	1089 	1090
f 1088 	1090 	1091
f 1086 	1087 	1071
f 1087 	1092 	1073
f 107 	1091 	1090
f 107 	1090 	879
f 1093 	108 	1089
f 1090 	1089 	108
f 1090 	108 	879
f 1089 	1088 	1093
f 1093 	1088 	932
f 1073 	1092 	1074
f 1091 	1049 	1088
f 943 	1091 	107
f 108 	1093 	932
f 1094 	1095 	1096
f 81 	1096 	1095
f 1095 	1094 	82
f 1096 	939 	1052
f 1094 	1096 	1052
f 1096 	81 	939
f 943 	82 	1094
f 1092 	1087 	1118
f 1097 	1098 	1099
f 75 	1099 	1098
f 75 	1098 	879
f 1098 	1097 	76
f 1098 	76 	879
f 980 	904 	1003
f 936 	1053 	1099
f 1052 	1097 	1053
f 1003 	1101 	980
f 1102 	1100 	1074
f 1058 	1059 	1103
f 980 	1101 	983
f 1092 	1102 	1074
f 1102 	407 	1100
f 1058 	1103 	1029
f 1100 	407 	399
f 809 	810 	975
f 1092 	1147 	1102
f 1001 	1104 	1105
f 1118 	1147 	1092
f 1148 	407 	1102
f 1105 	1106 	1001
f 1147 	1148 	1102
f 972 	975 	810
f 1107 	1002 	1106
f 1001 	1106 	1002
f 1111 	1108 	1079
f 1107 	1109 	1002
f 1086 	1080 	1112
f 1113 	1101 	1114
f 1003 	1114 	1101
f 297 	1103 	295
f 1059 	295 	1103
f 1003 	1110 	1114
f 1108 	1112 	1080
f 1112 	1115 	1086
f 1109 	1107 	811
f 1019 	1117 	1021
f 1019 	1116 	1117
f 1086 	1115 	1087
f 1107 	1106 	811
f 1106 	1105 	810
f 810 	811 	1106
f 1104 	979 	810
f 1105 	1104 	810
f 979 	977 	810
f 1118 	1087 	1115
f 1128 	1115 	1112
f 1116 	1119 	1121
f 970 	1120 	801
f 1120 	816 	801
f 1111 	1122 	1108
f 983 	1101 	1123
f 1125 	1122 	1111
f 1122 	1126 	1108
f 1116 	1121 	1117
f 1124 	1120 	986
f 1117 	1121 	1127
f 1126 	1112 	1108
f 1120 	1124 	890
f 1117 	1127 	1057
f 1124 	893 	890
f 1059 	1057 	1127
f 1132 	893 	1124
f 1120 	890 	816
f 1126 	1128 	1112
f 1101 	1113 	1129
f 1128 	1150 	1115
f 1119 	129 	124
f 1123 	1129 	1130
f 1123 	1101 	1129
f 1123 	1130 	1131
f 1114 	1110 	811
f 126 	873 	1121
f 124 	126 	1121
f 1119 	124 	1121
f 1115 	1150 	1118
f 1132 	1124 	1131
f 1123 	1131 	1124
f 1121 	873 	290
f 1121 	290 	291
f 292 	1127 	291
f 1121 	291 	1127
f 874 	1059 	294
f 1127 	293 	1059
f 1130 	1129 	813
f 1129 	1113 	813
f 811 	813 	1114
f 1110 	1109 	811
f 825 	960 	1001
f 1104 	960 	979
f 294 	1059 	293
f 1127 	292 	293
f 296 	1059 	874
f 1137 	1138 	1126
f 1029 	1103 	1133
f 1103 	298 	1133
f 1126 	1138 	1128
f 1133 	1031 	1029
f 1133 	1134 	1031
f 1135 	1136 	1125
f 1125 	1136 	1122
f 1126 	1122 	1137
f 1134 	1045 	1037
f 1133 	299 	875
f 1136 	1137 	1122
f 299 	1133 	298
f 1103 	297 	298
f 302 	1133 	301
f 875 	301 	1133
f 1134 	302 	303
f 1133 	302 	1134
f 303 	304 	1134
f 1139 	1140 	1136
f 1135 	1139 	1136
f 876 	1045 	305
f 304 	305 	1045
f 1134 	304 	1045
f 1141 	1139 	1135
f 1045 	313 	1046
f 313 	311 	1046
f 1140 	1142 	1136
f 803 	802 	1139
f 1143 	1137 	1142
f 1136 	1142 	1137
f 313 	1045 	314
f 876 	314 	1045
f 1145 	1138 	1144
f 1137 	1144 	1138
f 311 	315 	1046
f 1143 	1144 	1137
f 1145 	1330 	1138
f 317 	271 	315
f 479 	271 	317
f 1144 	1143 	802
f 1143 	1142 	802
f 1142 	1140 	802
f 1140 	1139 	802
f 1141 	803 	1139
f 407 	1148 	766
f 1146 	1159 	1149
f 1146 	1158 	1159
f 1152 	1147 	1118
f 113 	1151 	118
f 1150 	1152 	1118
f 1147 	1153 	1148
f 113 	1149 	1151
f 1152 	1153 	1147
f 118 	1151 	1154
f 1153 	774 	1148
f 1148 	774 	766
f 1154 	120 	118
f 120 	1154 	1116
f 1160 	1151 	1149
f 1154 	1151 	1161
f 1049 	1091 	1051
f 1156 	145 	94
f 943 	1094 	1051
f 1156 	1157 	145
f 1075 	1220 	813
f 1157 	1164 	1158
f 1157 	1158 	1146
f 1149 	1159 	1160
f 1064 	1188 	806
f 811 	1219 	813
f 1161 	1151 	1160
f 1154 	1161 	1119
f 1160 	1399 	1161
f 1154 	1119 	1116
f 1164 	1395 	1158
f 1158 	1394 	1396
f 878 	1159 	1396
f 877 	1159 	878
f 1158 	1396 	1159
f 1182 	804 	1180
f 804 	1185 	806
f 1159 	1398 	1160
f 1159 	877 	871
f 1159 	871 	1398
f 958 	1201 	810
f 880 	1161 	872
f 129 	1119 	128
f 1161 	128 	1119
f 1161 	880 	132
f 1161 	132 	128
f 1227 	815 	1224
f 674 	1313 	675
f 950 	1076 	1047
f 1076 	1078 	1047
f 1048 	1081 	1049
f 948 	1081 	1048
f 943 	1051 	1091
f 932 	1088 	1049
f 1155 	675 	1315
f 1052 	1051 	1094
f 1099 	1053 	1097
f 802 	803 	1176
f 1162 	1157 	1156
f 1064 	806 	1187
f 1164 	1157 	1162
f 1164 	1162 	1163
f 864 	881 	72
f 867 	72 	881
f 72 	1391 	1163
f 868 	1164 	1393
f 882 	1164 	868
f 1163 	1393 	1164
f 1099 	75 	936
f 1038 	1040 	1033
f 939 	76 	1097
f 939 	1097 	1052
f 1165 	1166 	1167
f 1035 	1040 	1010
f 69 	1167 	1166
f 69 	1166 	879
f 1166 	1165 	70
f 1166 	70 	879
f 1053 	1165 	1167
f 934 	1054 	1167
f 1053 	1167 	1054
f 1040 	1050 	1010
f 1167 	69 	934
f 1035 	1010 	1023
f 936 	70 	1165
f 936 	1165 	1053
f 1170 	1171 	1169
f 1168 	1169 	1171
f 1170 	1172 	1171
f 1290 	120 	1036
f 1170 	1169 	62
f 1170 	62 	1172
f 1038 	1036 	1019
f 1169 	1168 	64
f 934 	1168 	1054
f 120 	1019 	1036
f 1171 	803 	1168
f 933 	803 	1171
f 1038 	1019 	1021
f 1171 	1172 	933
f 1172 	62 	933
f 934 	64 	1168
f 803 	1054 	1168
f 1173 	1174 	1175
f 1173 	1175 	1176
f 1040 	1038 	1021
f 183 	1176 	1175
f 183 	1175 	879
f 1050 	1040 	1021
f 1177 	185 	1174
f 1175 	1174 	185
f 1175 	185 	879
f 1174 	1173 	1177
f 185 	1177 	933
f 1173 	1176 	803
f 966 	984 	1178
f 1176 	1066 	802
f 933 	1173 	803
f 969 	1178 	1179
f 1066 	1176 	183
f 933 	1177 	1173
f 969 	1179 	971
f 1180 	1181 	1182
f 177 	1182 	1181
f 177 	1181 	879
f 1181 	1180 	179
f 1181 	179 	879
f 1065 	804 	1182
f 1066 	1180 	802
f 802 	1180 	804
f 1178 	1184 	1179
f 1182 	177 	1065
f 1066 	179 	1180
f 1185 	1186 	1187
f 1178 	1183 	1184
f 170 	1187 	1186
f 1018 	1179 	1184
f 1186 	1185 	172
f 1187 	806 	1185
f 1065 	1185 	804
f 1187 	170 	1064
f 1065 	172 	1185
f 1188 	1189 	1190
f 163 	1190 	1189
f 1189 	1188 	164
f 1284 	1184 	1183
f 1190 	807 	1188
f 1184 	1027 	1018
f 1190 	163 	1062
f 1190 	1062 	807
f 207 	212 	1191
f 1064 	164 	1188
f 1192 	1193 	1194
f 157 	1194 	1193
f 157 	1193 	879
f 988 	207 	1191
f 1193 	1192 	159
f 1193 	159 	879
f 990 	1195 	989
f 952 	809 	1194
f 809 	807 	1194
f 1062 	1192 	807
f 1194 	157 	952
f 1195 	990 	1191
f 1062 	159 	1192
f 992 	1195 	1196
f 1197 	1198 	1199
f 1198 	879 	149
f 1198 	149 	1199
f 1195 	1205 	1196
f 879 	1198 	150
f 1197 	150 	1198
f 1196 	978 	992
f 958 	810 	1199
f 809 	1197 	810
f 1178 	984 	1196
f 212 	220 	1200
f 958 	1199 	149
f 150 	1197 	952
f 1201 	1202 	1203
f 1200 	1191 	212
f 1202 	879 	144
f 1202 	144 	1203
f 1191 	1200 	1204
f 879 	1202 	146
f 1201 	146 	1202
f 811 	810 	1203
f 1203 	956 	811
f 1191 	1204 	1195
f 1203 	144 	956
f 958 	146 	1201
f 956 	1217 	811
f 1206 	1207 	1208
f 1206 	1208 	1209
f 1205 	1195 	1204
f 139 	1209 	1208
f 139 	1208 	879
f 1196 	1205 	1183
f 1210 	140 	1207
f 1208 	1207 	140
f 1208 	140 	879
f 1207 	1206 	1210
f 807 	806 	1188
f 1055 	815 	1209
f 1192 	1194 	807
f 1055 	1209 	1070
f 1199 	810 	1197
f 952 	1197 	809
f 139 	1070 	1209
f 1201 	1203 	810
f 1210 	1206 	1067
f 140 	1210 	1067
f 1206 	815 	1067
f 1211 	1212 	1213
f 1206 	1209 	815
f 134 	1213 	1212
f 134 	1212 	879
f 1212 	1211 	135
f 1212 	135 	879
f 1069 	1214 	1056
f 1213 	1056 	1211
f 1069 	1056 	1213
f 1056 	1055 	1211
f 1070 	1211 	1055
f 1227 	1067 	815
f 814 	1224 	815
f 1069 	1213 	134
f 1070 	135 	1211
f 1214 	1215 	1216
f 127 	1216 	1215
f 1215 	1214 	130
f 24 	25 	902
f 1047 	1056 	1216
f 1216 	950 	1047
f 1216 	127 	950
f 1214 	1216 	1056
f 130 	1214 	1069
f 1217 	1218 	1219
f 197 	1219 	1218
f 1218 	1217 	198
f 1278 	12 	865
f 1075 	813 	1219
f 197 	1075 	1219
f 1217 	1219 	811
f 956 	198 	1217
f 1220 	1221 	1222
f 193 	1222 	1221
f 91 	104 	1409
f 1221 	1220 	194
f 814 	813 	1222
f 1222 	1072 	814
f 1220 	1222 	813
f 1072 	1222 	193
f 1223 	13 	12
f 194 	1220 	1075
f 12 	11 	1223
f 1226 	1227 	1225
f 1224 	1225 	1227
f 968 	995 	1000
f 1226 	1228 	1227
f 1226 	1225 	189
f 1226 	189 	1228
f 648 	921 	1223
f 1225 	1224 	190
f 6 	35 	1229
f 1067 	1227 	1228
f 1067 	1228 	189
f 1229 	11 	6
f 951 	1230 	987
f 814 	1072 	1224
f 190 	1224 	1072
f 1229 	1231 	11
f 955 	1230 	951
f 1223 	11 	1231
f 1230 	1233 	987
f 1232 	1234 	621
f 1235 	648 	1223
f 1223 	1231 	1235
f 1235 	660 	648
f 1237 	1270 	1238
f 1239 	995 	993
f 1236 	1239 	993
f 1229 	1242 	1231
f 995 	1079 	1000
f 1239 	1079 	995
f 1240 	1272 	1241
f 1243 	1235 	1231
f 1234 	1244 	621
f 910 	660 	1235
f 1230 	1333 	1233
f 1273 	1232 	1241
f 1265 	1229 	35
f 1279 	1234 	1273
f 1232 	1273 	1234
f 1242 	1229 	1265
f 1241 	1232 	621
f 621 	620 	1241
f 1247 	1245 	621
f 1243 	1231 	1242
f 1245 	1249 	621
f 1244 	1234 	1279
f 1111 	1079 	1239
f 96 	925 	1246
f 1235 	1243 	910
f 1244 	1279 	1247
f 1246 	92 	96
f 1245 	1280 	1249
f 1242 	1248 	1251
f 1246 	1256 	1250
f 1244 	1247 	621
f 618 	621 	1249
f 614 	618 	1249
f 1249 	1257 	614
f 1248 	46 	1251
f 1242 	1251 	1243
f 1243 	1251 	1254
f 1260 	1263 	614
f 1246 	925 	1255
f 1243 	1254 	910
f 1253 	1339 	1252
f 1255 	1256 	1246
f 1257 	1340 	1258
f 46 	1248 	52
f 1256 	1259 	1250
f 1251 	47 	1254
f 1251 	46 	47
f 265 	266 	614
f 1252 	1260 	614
f 1253 	1252 	614
f 1257 	1258 	614
f 1258 	1253 	614
f 1254 	47 	1005
f 1256 	1255 	1318
f 1260 	1346 	1263
f 34 	38 	1262
f 1317 	1318 	1255
f 1261 	1347 	1264
f 866 	68 	59
f 1262 	1269 	1265
f 1266 	1264 	1349
f 1262 	1268 	1269
f 1271 	80 	700
f 262 	1267 	273
f 273 	1267 	1349
f 1266 	1349 	1267
f 38 	39 	1268
f 862 	695 	694
f 38 	1268 	1262
f 1263 	1261 	614
f 1261 	1264 	614
f 1264 	1266 	614
f 1266 	1267 	614
f 262 	265 	614
f 1267 	262 	614
f 863 	697 	696
f 1237 	629 	1270
f 1248 	1265 	1269
f 699 	697 	863
f 1271 	700 	702
f 1272 	1238 	1270
f 1265 	1248 	1242
f 1268 	39 	50
f 1238 	1272 	1240
f 1269 	1268 	51
f 310 	325 	479
f 1268 	50 	51
f 1273 	1241 	1272
f 327 	331 	480
f 52 	1248 	1269
f 1269 	51 	52
f 471 	502 	501
f 25 	1 	902
f 1270 	830 	1275
f 1272 	1270 	1276
f 7 	4 	1274
f 9 	866 	5
f 1270 	1275 	1276
f 582 	521 	520
f 1276 	1277 	1272
f 1275 	1287 	1276
f 1276 	1292 	1277
f 13 	865 	12
f 544 	542 	617
f 1272 	1277 	1273
f 2 	1274 	1
f 7 	1274 	2
f 5 	866 	4
f 8 	866 	9
f 742 	849 	526
f 849 	742 	745
f 1275 	233 	1287
f 14 	12 	1278
f 8 	10 	1278
f 337 	480 	331
f 1292 	1295 	1277
f 333 	472 	481
f 333 	481 	470
f 1196 	1183 	1178
f 1245 	1247 	1280
f 471 	501 	476
f 1247 	1279 	1280
f 519 	505 	504
f 507 	505 	519
f 1299 	1205 	1204
f 1205 	1282 	1183
f 1205 	1299 	1282
f 1277 	1281 	1273
f 1277 	1295 	1281
f 579 	523 	522
f 1273 	1281 	1279
f 1280 	1279 	1283
f 1281 	1283 	1279
f 524 	523 	579
f 1183 	1282 	1284
f 520 	525 	582
f 532 	531 	604
f 530 	604 	531
f 1184 	1284 	1027
f 607 	535 	533
f 607 	533 	534
f 1299 	1285 	1282
f 1282 	1286 	1284
f 617 	542 	543
f 1282 	1285 	1286
f 1032 	1284 	1286
f 1032 	1286 	1036
f 1292 	1276 	1287
f 1289 	1287 	233
f 750 	851 	747
f 233 	235 	1289
f 750 	852 	851
f 240 	1289 	235
f 1285 	1288 	1290
f 853 	862 	694
f 1291 	687 	1293
f 1285 	1290 	1286
f 686 	695 	1293
f 1036 	1286 	1290
f 1294 	687 	1291
f 1296 	1298 	1292
f 113 	1288 	97
f 1292 	1298 	1295
f 1288 	118 	1290
f 1288 	113 	118
f 1293 	18 	1291
f 1290 	118 	120
f 1296 	1292 	1287
f 1204 	1200 	1297
f 1296 	1287 	1289
f 695 	18 	1293
f 17 	18 	862
f 1294 	18 	696
f 1297 	1200 	1302
f 1204 	1297 	1299
f 1291 	18 	1294
f 1297 	1307 	1299
f 1298 	1300 	1295
f 1299 	1307 	1285
f 1289 	240 	1301
f 220 	230 	1302
f 1289 	1301 	1296
f 220 	1302 	1200
f 689 	1309 	691
f 1301 	1303 	1296
f 1304 	1302 	230
f 230 	234 	1304
f 1298 	1296 	1303
f 1302 	1304 	1306
f 1298 	1305 	1300
f 1303 	1305 	1298
f 1297 	1302 	1306
f 1307 	1297 	1306
f 234 	238 	94
f 94 	1304 	234
f 1304 	1308 	1306
f 1301 	510 	1303
f 509 	510 	1301
f 510 	176 	1303
f 1304 	94 	1308
f 1306 	1308 	97
f 1271 	902 	1
f 1303 	176 	1305
f 1308 	145 	110
f 1310 	691 	1309
f 1308 	110 	97
f 1305 	176 	178
f 1306 	97 	1307
f 689 	699 	1309
f 1281 	1311 	1283
f 1307 	1288 	1285
f 702 	693 	1312
f 1281 	1295 	1311
f 1307 	97 	1288
f 1316 	1328 	1152
f 1164 	882 	883
f 1152 	1328 	1153
f 1313 	674 	678
f 1310 	1309 	902
f 781 	774 	1153
f 675 	1313 	1315
f 1314 	1150 	1128
f 1138 	1314 	1128
f 1259 	1348 	1342
f 1314 	1316 	1150
f 929 	1317 	1255
f 1317 	929 	946
f 1155 	1315 	1162
f 238 	1156 	94
f 1256 	1319 	1259
f 1315 	1163 	1162
f 1318 	1319 	1256
f 238 	1155 	1156
f 1162 	1156 	1155
f 94 	145 	1308
f 1322 	1317 	1321
f 946 	1321 	1317
f 1324 	1318 	1323
f 1317 	1323 	1318
f 1152 	1150 	1316
f 1322 	1323 	1317
f 678 	1320 	1327
f 1319 	1325 	1326
f 59 	1320 	63
f 1318 	1325 	1319
f 1316 	1335 	1328
f 1324 	1325 	1318
f 1320 	1388 	1327
f 1326 	1354 	1319
f 1324 	1053 	1325
f 1328 	781 	1153
f 1327 	1313 	678
f 1313 	1327 	72
f 1322 	1053 	1323
f 1323 	1053 	1324
f 1321 	1053 	1322
f 999 	1052 	1321
f 1329 	1314 	1330
f 1330 	1314 	1138
f 1327 	1390 	72
f 1327 	1389 	1390
f 1331 	1230 	955
f 1329 	1332 	1314
f 1315 	1313 	72
f 955 	1250 	1331
f 1334 	1316 	1332
f 1314 	1332 	1316
f 1331 	1333 	1230
f 1336 	1328 	1335
f 1295 	1300 	1311
f 1334 	1335 	1316
f 1233 	1337 	1236
f 1328 	785 	781
f 785 	1328 	1336
f 1333 	1337 	1233
f 1260 	1252 	1346
f 1337 	1338 	1236
f 1252 	1339 	1346
f 1335 	1334 	804
f 1334 	1332 	804
f 1332 	1329 	804
f 1329 	1330 	804
f 802 	804 	1330
f 1330 	1145 	802
f 1145 	1144 	802
f 1249 	1280 	1340
f 1249 	1340 	1257
f 1236 	1338 	1239
f 1338 	1111 	1239
f 1340 	1339 	1258
f 471 	476 	155
f 1338 	1125 	1111
f 1253 	1258 	1339
f 1250 	1259 	1331
f 519 	504 	201
f 1331 	1342 	1333
f 322 	519 	321
f 1259 	1342 	1331
f 322 	332 	519
f 1337 	1333 	1344
f 1343 	1340 	1280
f 1342 	1344 	1333
f 1337 	1345 	1338
f 1280 	1283 	1343
f 1343 	1341 	1340
f 466 	467 	607
f 1344 	1345 	1337
f 711 	437 	619
f 1340 	1341 	1339
f 1345 	1125 	1338
f 455 	582 	454
f 454 	582 	441
f 582 	525 	441
f 1370 	1343 	1283
f 1347 	1261 	1263
f 1319 	1348 	1259
f 1346 	1347 	1263
f 1319 	1354 	1348
f 1349 	1264 	1347
f 1360 	1366 	931
f 1347 	1357 	1349
f 1342 	1350 	1344
f 1348 	1350 	1342
f 1376 	1371 	333
f 1350 	1351 	1344
f 333 	931 	1376
f 1350 	1363 	1351
f 1339 	1352 	1346
f 1361 	1363 	1350
f 1344 	1351 	1345
f 1345 	1135 	1125
f 1341 	1352 	1339
f 1352 	1353 	1346
f 1351 	1135 	1345
f 1353 	1347 	1346
f 331 	309 	1356
f 1355 	1348 	1354
f 1355 	1358 	1348
f 1354 	1054 	1355
f 1359 	931 	1356
f 1360 	931 	1359
f 1353 	1357 	1347
f 1349 	280 	273
f 1361 	1350 	1358
f 1348 	1358 	1350
f 1349 	1357 	280
f 1362 	1351 	1363
f 1359 	432 	1364
f 1362 	1365 	1351
f 1362 	1363 	803
f 431 	432 	1356
f 1359 	1356 	432
f 1352 	1384 	1353
f 1141 	1135 	1365
f 1351 	1365 	1135
f 1141 	1365 	803
f 1365 	1362 	803
f 1361 	1054 	1363
f 1358 	1054 	1361
f 1355 	1054 	1358
f 1326 	1054 	1354
f 1325 	1054 	1326
f 1364 	1360 	1359
f 1366 	1367 	931
f 1341 	1368 	61
f 1343 	1368 	1341
f 1370 	1368 	1343
f 306 	395 	307
f 1366 	1369 	1367
f 1360 	1364 	1366
f 1369 	1366 	1364
f 1341 	61 	1352
f 570 	378 	908
f 1370 	1283 	1311
f 1371 	1372 	333
f 289 	568 	908
f 931 	1375 	1376
f 60 	1368 	1373
f 181 	1372 	1371
f 931 	1367 	1375
f 659 	658 	905
f 1374 	1370 	1311
f 655 	656 	905
f 871 	870 	641
f 1311 	1300 	1374
f 1374 	1373 	1370
f 1369 	181 	1371
f 1369 	1375 	1367
f 1369 	1371 	1376
f 1376 	1375 	1369
f 1368 	1370 	1373
f 1373 	1378 	79
f 1393 	1392 	653
f 650 	654 	869
f 1379 	926 	922
f 432 	1060 	1364
f 973 	1060 	432
f 1300 	1305 	1381
f 72 	1163 	1315
f 1364 	1061 	1369
f 1379 	1380 	940
f 1060 	1061 	1364
f 949 	940 	1380
f 1061 	1063 	1369
f 1369 	1063 	181
f 1379 	940 	926
f 1374 	1300 	1381
f 1374 	1378 	1373
f 1381 	1378 	1374
f 1377 	333 	1372
f 79 	1378 	171
f 171 	1378 	174
f 171 	200 	79
f 178 	1381 	1305
f 166 	167 	471
f 178 	174 	1381
f 1383 	156 	333
f 1381 	174 	1378
f 1368 	60 	61
f 1383 	333 	1377
f 155 	153 	471
f 153 	166 	471
f 333 	156 	155
f 1377 	161 	1383
f 61 	1384 	1352
f 1384 	56 	1353
f 161 	156 	1383
f 67 	1384 	61
f 1384 	74 	56
f 161 	1377 	181
f 1372 	181 	1377
f 67 	74 	1384
f 1353 	56 	1357
f 201 	471 	167
f 166 	153 	158
f 1271 	702 	902
f 1309 	699 	902
f 699 	863 	902
f 20 	902 	863
f 1310 	902 	1312
f 702 	1312 	902
f 679 	1385 	1320
f 1274 	4 	866
f 1320 	1385 	63
f 679 	1387 	1385
f 693 	80 	1386
f 1387 	1386 	1274
f 1385 	1274 	63
f 1387 	1274 	1385
f 80 	1271 	1274
f 1 	1274 	1271
f 866 	63 	1274
f 1386 	80 	1274
f 1390 	864 	72
f 1320 	68 	1388
f 1389 	1327 	1388
f 68 	866 	1278
f 1388 	68 	1278
f 865 	864 	1278
f 8 	1278 	866
f 864 	1390 	1278
f 1388 	1278 	1389
f 1389 	1278 	1390
f 921 	865 	13
f 72 	867 	1391
f 1392 	1163 	1391
f 1393 	1163 	1392
f 865 	653 	867
f 1392 	1391 	653
f 1391 	867 	653
f 1393 	653 	868
f 1395 	1164 	883
f 905 	635 	870
f 1394 	1158 	1395
f 1396 	905 	878
f 1394 	905 	1396
f 1395 	883 	905
f 1395 	905 	1394
f 870 	878 	905
f 869 	905 	883
f 655 	905 	869
f 1160 	1398 	1397
f 1160 	1397 	1399
f 872 	1161 	1399
f 1398 	871 	641
f 1397 	641 	1399
f 872 	1399 	641
f 1397 	1398 	641
f 635 	641 	870
f 106 	872 	641
f 106 	641 	137
f 1400 	1380 	1382
f 1400 	949 	1380
f 1382 	1051 	1400
f 1403 	1042 	1402
f 1404 	1043 	1403
f 1401 	1406 	1402
f 1404 	1380 	1379
f 1408 	1380 	1404
f 49 	1405 	1401
f 49 	91 	1405
f 1406 	1401 	1405
f 1407 	1403 	1402
f 1407 	1402 	1406
f 1403 	1407 	1408
f 1407 	1415 	1408
f 1407 	1414 	1415
f 1403 	1408 	1404
f 1410 	1405 	1409
f 91 	1409 	1405
f 1411 	1406 	1412
f 1405 	1412 	1406
f 1405 	1410 	1412
f 1406 	1411 	1413
f 1414 	1407 	1413
f 1406 	1413 	1407
f 1415 	1416 	1408
f 1408 	1416 	1382
f 1415 	1051 	1416
f 1414 	1049 	1415
f 1408 	1382 	1380
f 1413 	1411 	1049
f 1412 	1049 	1411
f 102 	101 	1048
f 1412 	1410 	1048
f 1418 	376 	1427
f 1418 	398 	376
f 1433 	93 	1417
f 93 	1418 	1417
f 123 	645 	1420
f 1420 	1421 	123
f 1421 	1423 	123
f 1420 	1422 	1421
f 1422 	1420 	1419
f 645 	1419 	1420
f 1424 	123 	1423
f 1425 	440 	1424
f 1428 	440 	1425
f 1422 	1426 	1423
f 1422 	1423 	1421
f 1425 	1424 	1426
f 1423 	1426 	1424
f 563 	1427 	564
f 440 	1428 	563
f 123 	1424 	440
f 1426 	1427 	563
f 563 	1428 	1426
f 1425 	1426 	1428
f 376 	565 	1427
f 1429 	1419 	640
f 1429 	640 	601
f 1429 	1430 	1419
f 1429 	216 	1430
f 1419 	1430 	1422
f 1431 	1426 	1422
f 1430 	1431 	1422
f 1431 	1417 	1426
f 1426 	1417 	1427
f 1417 	1418 	1427
f 215 	1429 	601
f 215 	216 	1429
f 1431 	1433 	1417
f 1433 	1431 	1432
f 1430 	216 	1432
f 1430 	1432 	1431
f 1418 	951 	398
f 951 	1418 	93
f 987 	398 	951
f 216 	1434 	1432
f 1432 	1434 	96
f 223 	924 	1434
f 1434 	925 	96
f 1434 	924 	925
f 1432 	96 	1433
f 1433 	92 	93
f 1433 	96 	92
f 92 	955 	93
# 2864 faces

 #end of obj_0

