<?xml version="1.0"?>
<COLLADA xmlns="http://www.collada.org/2005/11/COLLADASchema" version="1.4.1">
	<asset>
		<contributor>
			<author>Assimp</author>
			<authoring_tool>Assimp Exporter</authoring_tool>
		</contributor>
		<created>2024-07-31T18:52:08</created>
		<modified>2024-07-31T18:52:08</modified>
		<unit name="meter" meter="0.010000" />
		<up_axis>Y_UP</up_axis>
	</asset>
	<library_effects>
		<effect id="DefaultMaterial-fx" name="DefaultMaterial">
			<profile_COMMON>
				<technique sid="standard">
					<phong>
						<diffuse>
							<color sid="diffuse">0.600000   0.600000   0.600000   1.000000</color>
						</diffuse>
					</phong>
				</technique>
			</profile_COMMON>
		</effect>
	</library_effects>
	<library_materials>
		<material id="DefaultMaterial" name="DefaultMaterial">
			<instance_effect url="#DefaultMaterial-fx"/>
		</material>
	</library_materials>
	<library_geometries>
		<geometry id="meshId0" name="meshId0_name" >
			<mesh>
				<source id="meshId0-positions" name="meshId0-positions">
					<float_array id="meshId0-positions-array" count="336"> 
						-0.000582 -0.125000 0.059058 -0.029058 -0.125000 0.000942 0.028476 -0.125000 0.000942 0.028658 0.122000 0.002683 0.000421 0.124058 0.059158 0.001342 0.122000 0.057317 0.028658 0.122000 0.002683 0.029553 -0.122000 0.003130 0.028658 -0.122000 0.002683 -0.029058 0.124058 0.060000 -0.000942 -0.124058 0.060000 -0.000942 0.124058 0.060000 -0.030000 -0.124058 0.059058 -0.030000 0.124058 0.000942 -0.030000 -0.124058 0.000942 -0.029058 0.125000 0.000942 -0.000582 0.125000 0.059058 0.028476 0.125000 0.000942 0.000421 -0.124058 0.059158 0.001342 -0.122000 0.057317 0.029579 -0.124058 0.000842 0.028658 -0.122000 0.002683 0.029579 0.124058 0.000842 0.002236 0.122000 0.057764 0.029553 -0.122000 0.003130 0.029553 0.122000 0.003130 0.001342 -0.122000 0.057317 0.002236 0.122000 0.057764 0.001342 0.122000 0.057317 0.028658 0.122000 0.002683 0.002236 0.122000 0.057764 0.029553 0.122000 0.003130 0.001342 -0.122000 0.057317 0.029553 -0.122000 0.003130 0.002236 -0.122000 0.057764 -0.029058 -0.124058 0.000000 -0.029602 -0.124602 0.000398 -0.029724 -0.124058 0.000276 -0.029058 -0.125000 0.000942 -0.029058 -0.124724 0.000276 -0.029724 -0.124724 0.000942 -0.029058 -0.125000 0.059058 -0.029602 -0.124602 0.059602 -0.029724 -0.124724 0.059058 -0.029058 -0.124058 0.060000 -0.029058 -0.124724 0.059724 -0.029724 -0.124058 0.059724 -0.029058 0.124058 0.000000 -0.029602 0.124602 0.000398 -0.029058 0.124724 0.000276 -0.029724 0.124058 0.000276 -0.029058 0.125000 0.000942 -0.029724 0.124724 0.000942 -0.029058 0.124058 0.060000 -0.029602 0.124602 0.059602 -0.029724 0.124058 0.059724 -0.029058 0.125000 0.059058 -0.029058 0.124724 0.059724 -0.030000 0.124058 0.059058 -0.029724 0.124724 0.059058 -0.000942 0.124058 0.060000 -0.000233 0.124602 0.059623 -0.000849 0.124724 0.059704 -0.000140 0.124058 0.059774 
						-0.000582 0.125000 0.059058 0.000115 0.124724 0.059108 0.029058 0.124058 0.000000 0.029390 0.124602 0.000377 0.029634 0.124058 0.000226 0.029223 0.124724 0.000892 0.028854 0.124724 0.000296 0.028476 0.125000 0.000942 0.029361 -0.124602 0.000395 0.029601 -0.124058 0.000247 0.028767 -0.124724 0.000276 0.029202 -0.124724 0.000979 0.028476 -0.125000 0.000942 0.029058 -0.124058 0.000000 -0.000942 -0.124058 0.060000 -0.000233 -0.124602 0.059623 -0.000140 -0.124058 0.059774 -0.000582 -0.125000 0.059058 -0.000849 -0.124724 0.059704 0.000115 -0.124724 0.059108 -0.029058 0.124058 0.000000 0.028854 0.124724 0.000296 0.029058 0.124058 0.000000 -0.029058 0.124724 0.000276 0.028476 0.125000 0.000942 -0.029058 0.124724 0.059724 -0.000849 0.124724 0.059704 -0.029058 0.125000 0.059058 -0.029058 -0.124058 0.000000 0.028767 -0.124724 0.000276 -0.029058 -0.124724 0.000276 0.028476 -0.125000 0.000942 -0.029058 -0.125000 0.000942 -0.029058 -0.124724 0.059724 -0.000849 -0.124724 0.059704 -0.029058 -0.125000 0.059058 -0.000582 -0.125000 0.059058 -0.029058 -0.125000 0.059058 0.029553 0.122000 0.003130 -0.029058 -0.124058 0.060000 -0.029058 0.125000 0.059058 0.002236 -0.122000 0.057764 0.002236 -0.122000 0.057764 0.001342 0.122000 0.057317 0.028658 -0.122000 0.002683 -0.029058 0.125000 0.000942 -0.000582 0.125000 0.059058 0.029058 -0.124058 0.000000 
					</float_array>
					<technique_common>
						<accessor count="112" offset="0" source="#meshId0-positions-array" stride="3">
							<param name="X" type="float" />
							<param name="Y" type="float" />
							<param name="Z" type="float" />
						</accessor>
					</technique_common>
				</source>
				<source id="meshId0-normals" name="meshId0-normals">
					<float_array id="meshId0-normals-array" count="336"> 
						0.003231 -0.999990 0.003243 -0.006371 -0.999975 -0.003191 0.009238 -0.999947 -0.004552 0.894427 -0.000000 0.447214 0.850589 0.030888 0.524924 0.894427 0.000000 0.447215 0.447214 0.000000 -0.894427 0.447213 0.000000 -0.894427 0.447213 0.000000 -0.894427 -0.009615 0.000632 0.999954 0.007847 -0.001201 0.999969 0.007829 0.002338 0.999967 -0.999997 -0.000604 0.002398 -0.999997 0.000593 -0.002411 -0.999954 -0.002213 -0.009310 -0.006382 0.999975 -0.003180 0.003257 0.999990 0.003231 0.009269 0.999947 -0.004565 0.875873 -0.026230 0.481828 0.894427 0.000000 0.447214 0.924830 -0.011508 0.380207 0.894427 0.000001 0.447214 0.922345 0.023626 0.385644 0.894427 -0.000000 0.447214 0.894427 -0.000000 0.447214 0.894427 -0.000000 0.447214 -0.447217 0.000000 0.894425 -0.447211 0.000000 0.894428 -0.447211 0.000000 0.894428 0.000000 1.000000 -0.000000 0.000000 1.000000 -0.000002 0.000000 1.000000 0.000000 0.000000 -1.000000 0.000000 0.000000 -1.000000 0.000003 0.000000 -1.000000 0.000000 -0.004708 -0.001148 -0.999988 -0.577351 -0.577351 -0.577349 -0.707094 -0.000725 -0.707119 -0.006371 -0.999975 -0.003191 -0.001976 -0.796368 -0.604810 -0.707116 -0.707091 -0.002975 -0.009467 -0.999913 0.009208 -0.577350 -0.577351 0.577350 -0.707105 -0.707107 0.001511 -0.009601 -0.001148 0.999953 -0.003663 -0.611680 0.791097 -0.707106 -0.000397 0.707108 -0.004719 0.002312 -0.999986 -0.577351 0.577351 -0.577349 -0.001818 0.792557 -0.609795 -0.707105 0.000399 -0.707108 -0.006382 0.999975 -0.003180 -0.796655 0.604431 -0.001975 -0.009615 0.000632 0.999954 -0.577350 0.577351 0.577350 -0.707094 0.000722 0.707119 -0.009467 0.999913 0.009208 -0.003654 0.611688 0.791091 -0.999954 0.002242 0.009281 -0.604423 0.796661 0.001974 0.007829 0.002338 0.999967 0.440820 0.544924 0.713257 0.003648 0.795891 0.605429 0.442718 0.000506 0.896661 
						0.003257 0.999990 0.003231 0.544756 0.792557 0.274033 0.004067 0.000660 -0.999992 0.633150 0.667830 -0.391311 0.944697 0.000641 -0.327944 0.707985 0.612702 0.351218 0.002954 0.606633 -0.794977 0.009269 0.999947 -0.004565 0.581415 -0.729979 -0.359288 0.698170 -0.000827 -0.715932 0.003344 -0.606940 -0.794741 0.707927 -0.613013 0.350791 0.009238 -0.999947 -0.004552 0.004245 -0.001168 -0.999990 0.007847 -0.001201 0.999969 0.440821 -0.544928 0.713254 0.604010 -0.000507 0.796977 0.003231 -0.999990 0.003243 0.003664 -0.795900 0.605417 0.540268 -0.796342 0.271935 -0.004719 0.002312 -0.999986 0.002954 0.606633 -0.794977 0.004067 0.000660 -0.999992 -0.001818 0.792557 -0.609795 0.009269 0.999947 -0.004565 -0.003654 0.611688 0.791091 0.003648 0.795891 0.605429 -0.009467 0.999913 0.009208 -0.004708 -0.001148 -0.999988 0.003344 -0.606940 -0.794741 -0.001976 -0.796368 -0.604810 0.009238 -0.999947 -0.004552 -0.006371 -0.999975 -0.003191 -0.003663 -0.611680 0.791097 0.003664 -0.795900 0.605417 -0.009467 -0.999913 0.009208 0.003231 -0.999990 0.003243 -0.009467 -0.999913 0.009208 0.447214 0.000000 -0.894427 -0.009601 -0.001148 0.999953 -0.009467 0.999913 0.009208 0.894427 0.000000 0.447214 -0.447217 0.000000 0.894425 0.000000 1.000000 -0.000002 0.000000 -1.000000 0.000003 -0.006382 0.999975 -0.003180 0.003257 0.999990 0.003231 0.004245 -0.001168 -0.999990 
					</float_array>
					<technique_common>
						<accessor count="112" offset="0" source="#meshId0-normals-array" stride="3">
							<param name="X" type="float" />
							<param name="Y" type="float" />
							<param name="Z" type="float" />
						</accessor>
					</technique_common>
				</source>
				<source id="meshId0-tangents" name="meshId0-tangents">
					<float_array id="meshId0-tangents-array" count="336"> 
						0.999995 0.003231 -0.000010 0.999980 -0.006371 -0.000020 0.999957 0.009238 0.000042 0.009082 0.999794 -0.018162 -0.045473 0.998854 0.014910 -0.018111 0.999180 0.036222 0.000000 1.000000 0.000000 0.000000 1.000000 0.000000 0.000000 1.000000 0.000000 -0.001985 0.999998 -0.000651 -0.001795 0.999998 0.001215 0.001781 0.999996 -0.002352 -0.000531 0.999551 0.029945 0.000528 0.999641 0.026784 -0.002000 0.999738 -0.022807 -0.999980 -0.006382 0.000020 -0.999995 0.003257 0.000011 -0.999957 0.009269 -0.000042 0.035696 0.999308 -0.010488 0.017989 0.999191 -0.035978 0.036113 0.997684 -0.057647 -0.015051 0.999434 0.030101 -0.050391 0.996959 0.059444 -0.000000 1.000000 0.000000 -0.000000 1.000000 0.000000 -0.000000 1.000000 0.000000 -0.000000 1.000000 -0.000000 -0.000000 1.000000 -0.000000 -0.000000 1.000000 -0.000000 -0.894427 -0.000000 -0.447214 -0.894427 -0.000001 -0.447214 -0.894427 0.000000 -0.447214 0.894427 0.000000 0.447214 0.894427 0.000001 0.447214 0.894427 -0.000000 0.447214 -0.249830 0.968290 0.000064 -0.592502 0.782775 -0.190274 -0.070439 0.995098 0.069417 -0.939820 0.007078 -0.341596 -0.759257 0.394799 -0.517361 -0.694354 0.695162 -0.186073 -0.936713 0.012090 0.349889 -0.589360 0.784058 0.194699 -0.693391 0.693804 0.194538 -0.248950 0.968515 -0.001278 -0.728384 0.543666 0.416993 -0.070404 0.995070 -0.069845 0.248550 0.968618 0.001067 0.590578 0.783565 0.192987 0.753170 0.402224 0.520529 0.071141 0.994966 -0.070579 0.938197 0.007088 0.346031 0.591833 0.780706 0.200579 0.250083 0.968223 0.001793 0.591273 0.783281 -0.192008 0.069662 0.995206 0.068644 0.938327 0.012065 -0.345538 0.732932 0.539818 -0.414013 0.002000 0.999660 -0.025996 0.782745 0.594322 -0.184642 -0.186526 0.982450 -0.000837 -0.488002 0.812427 -0.319086 -0.563218 0.501908 -0.656409 -0.098622 0.993960 0.048132 
						-0.793491 0.004551 -0.608565 -0.676245 0.608421 -0.415351 -0.423438 0.905924 -0.001124 -0.706166 0.705391 0.061264 -0.018632 0.998488 -0.051721 -0.659356 0.751617 0.017930 -0.952135 0.244703 0.183191 -0.984847 0.008338 -0.173225 0.759664 0.645185 -0.081525 0.131044 0.983252 0.126658 0.948476 0.253727 -0.189780 0.659628 0.751373 -0.018149 0.988575 0.008448 0.150491 0.439138 0.898419 0.000815 0.186979 0.982364 -0.000288 0.487365 0.812601 0.319617 0.062001 0.996999 -0.046355 0.793162 0.004538 0.608994 0.567029 0.500335 0.654326 0.679256 0.603459 0.417671 0.000965 -0.999997 -0.002317 -0.000054 -0.794980 -0.606636 -0.000805 -1.000000 -0.000663 -0.000181 -0.609797 -0.792558 0.004130 -0.004603 -0.999981 -0.000769 0.791094 -0.611694 -0.000546 0.605435 -0.795895 0.003409 0.009241 -0.999951 -0.000968 -0.999999 0.001153 0.000141 -0.794745 0.606944 0.000318 -0.604811 0.796369 -0.003804 -0.004587 0.999982 0.002612 -0.003207 0.999992 0.000795 0.791100 0.611686 0.000547 0.605422 0.795904 -0.003409 0.009241 0.999951 0.001763 0.003249 0.999993 0.999955 -0.009466 0.000087 0.000000 1.000000 0.000000 0.002004 0.999997 0.001167 -0.999955 -0.009466 -0.000087 -0.000000 1.000000 0.000000 -0.000000 1.000000 -0.000000 -0.894427 -0.000001 -0.447214 0.894427 0.000001 0.447214 -0.002413 -0.003196 -0.999992 -0.001774 0.003237 -0.999993 0.000745 -0.999999 0.001171 
					</float_array>
					<technique_common>
						<accessor count="112" offset="0" source="#meshId0-tangents-array" stride="3">
							<param name="X" type="float" />
							<param name="Y" type="float" />
							<param name="Z" type="float" />
						</accessor>
					</technique_common>
				</source>
				<source id="meshId0-bitangents" name="meshId0-bitangents">
					<float_array id="meshId0-bitangents-array" count="336"> 
						0.000000 0.003243 0.999995 -0.000000 -0.003191 0.999995 -0.000000 -0.004552 0.999990 -0.447122 0.020306 0.894243 -0.523862 -0.036552 0.851019 -0.446848 -0.040497 0.893693 0.894427 -0.000000 0.447214 0.894427 -0.000000 0.447213 0.894427 -0.000000 0.447213 -0.999952 -0.001992 -0.009614 -0.999968 -0.001804 0.007845 -0.999968 0.001799 0.007825 -0.002415 0.029944 -0.999549 0.002426 0.026782 -0.999638 0.009358 -0.022788 -0.999697 0.000000 0.003180 0.999995 0.000000 -0.003231 0.999995 -0.000000 0.004565 0.999990 -0.481219 0.026385 0.876203 -0.446852 0.040225 0.893703 -0.378663 0.067044 0.923103 -0.446961 -0.033654 0.893920 -0.383067 -0.074261 0.920731 -0.447214 -0.000000 0.894427 -0.447214 -0.000000 0.894427 -0.447214 -0.000000 0.894427 -0.894425 -0.000000 -0.447217 -0.894428 -0.000000 -0.447211 -0.894428 -0.000000 -0.447211 -0.447214 0.000000 0.894427 -0.447214 0.000002 0.894427 -0.447214 0.000000 0.894427 -0.447214 0.000000 0.894427 -0.447214 0.000003 0.894427 -0.447214 0.000000 0.894427 0.968278 0.249827 -0.004845 0.561789 0.232225 -0.794018 0.703602 0.098893 -0.703679 0.341609 0.000822 -0.939842 0.650788 0.458184 -0.605428 0.133639 -0.129510 -0.982531 -0.349970 -0.005313 -0.936746 -0.565085 -0.227857 -0.792944 -0.138608 0.136511 -0.980894 -0.968469 -0.248951 -0.009585 -0.685159 -0.574695 -0.447530 -0.703594 -0.099171 -0.703648 0.968607 -0.248542 -0.005146 0.563811 -0.229548 -0.793363 0.657823 -0.458333 -0.597661 0.703521 -0.100211 -0.703574 0.346044 -0.000775 -0.938218 0.122778 0.158624 -0.979675 -0.968177 0.250089 -0.009468 -0.563083 0.230516 -0.793600 -0.703679 0.097797 -0.703755 -0.345619 0.005369 -0.938360 -0.680292 0.578303 -0.450298 -0.009336 -0.025976 -0.999619 -0.148270 -0.110057 -0.982804 -0.982419 -0.186513 0.008128 -0.753347 -0.207411 0.624059 -0.826300 -0.338594 0.450091 -0.891221 -0.109739 0.440094 
						-0.608574 -0.000582 0.793497 -0.495917 0.040952 0.867404 0.905916 0.423439 0.003964 0.316941 0.237542 0.918217 0.327414 0.054971 0.943280 -0.252996 -0.244272 0.936122 0.305663 0.756384 0.578320 -0.173178 0.006101 0.984872 0.291319 -0.225538 0.929659 0.703837 -0.182247 0.686585 0.316832 -0.753158 0.576516 -0.252449 0.244239 0.936278 -0.150444 -0.005890 0.988601 0.898410 -0.439137 0.004327 -0.982333 0.186975 0.007934 -0.753759 0.206721 0.623790 -0.794562 0.077413 0.602229 -0.609002 0.000605 0.793168 -0.823689 0.340892 0.453132 -0.496711 -0.040940 0.866950 -0.999988 -0.000976 0.004717 -0.999996 0.001835 -0.002316 -0.999991 0.000808 -0.004066 -0.999998 -0.001330 0.001252 -0.999949 0.009250 -0.004172 -0.999993 -0.002844 -0.002421 -0.999993 0.002573 0.002643 -0.999949 -0.009435 -0.003496 -0.999988 0.000974 0.004707 -0.999994 -0.002141 -0.002572 -0.999998 0.001381 0.001448 -0.999950 -0.009220 -0.003847 -0.999976 0.006363 0.002633 -0.999993 0.002870 -0.002411 -0.999993 -0.002585 0.002654 -0.999949 0.009435 -0.003496 -0.999993 -0.003225 0.001774 0.000000 0.009209 0.999958 0.894427 -0.000000 0.447214 -0.999952 0.002015 -0.009599 0.000000 -0.009209 0.999958 -0.447214 -0.000000 0.894427 -0.894425 -0.000000 -0.447217 -0.447214 0.000002 0.894427 -0.447214 0.000003 0.894427 -0.999977 -0.006374 0.002433 -0.999993 0.003251 0.001785 -0.999991 -0.000750 -0.004244 
					</float_array>
					<technique_common>
						<accessor count="112" offset="0" source="#meshId0-bitangents-array" stride="3">
							<param name="X" type="float" />
							<param name="Y" type="float" />
							<param name="Z" type="float" />
						</accessor>
					</technique_common>
				</source>
				<source id="meshId0-tex0" name="meshId0-tex0">
					<float_array id="meshId0-tex0-array" count="224"> 
						0.106238 0.771131 0.010064 0.574852 0.204378 0.574852 0.900855 0.013263 0.908437 0.240284 0.901231 0.233467 0.927561 0.776311 0.072439 0.779815 0.072439 0.776311 0.876220 0.570929 0.006671 0.472393 0.876220 0.472393 0.008230 0.259147 0.873285 0.463463 0.006873 0.463362 0.403782 0.573890 0.307609 0.770169 0.209469 0.573890 0.006824 0.240253 0.013969 0.233529 0.007600 0.008024 0.014173 0.014908 0.907524 0.006203 0.927561 0.993883 0.072439 0.779815 0.927561 0.779815 0.072439 0.997388 0.927561 0.993883 0.927561 0.997388 0.931066 0.779815 0.927561 0.993883 0.927561 0.779815 0.068934 0.993884 0.072439 0.779815 0.072439 0.993884 0.005922 0.468580 0.004758 0.465452 0.006701 0.465879 0.001622 0.464272 0.003219 0.466986 0.004342 0.463506 0.003103 0.258195 0.006162 0.257064 0.005733 0.258971 0.007308 0.254023 0.004670 0.255564 0.008067 0.256643 0.874220 0.468618 0.875375 0.465552 0.876887 0.467074 0.873454 0.465981 0.878495 0.464398 0.875794 0.463621 0.874631 0.254023 0.875787 0.257127 0.873859 0.256707 0.878863 0.258283 0.877306 0.255613 0.873694 0.259210 0.876213 0.259048 0.909226 0.246404 0.910675 0.242855 0.912093 0.244911 0.908606 0.243257 
						0.913657 0.241943 0.911044 0.240584 0.908534 0.001623 0.909456 0.004628 0.907478 0.004040 0.910222 0.006441 0.911624 0.003877 0.913181 0.007158 0.005620 0.006523 0.007573 0.005879 0.003296 0.005601 0.004887 0.008575 0.001932 0.008869 0.006577 0.003663 0.006048 0.246404 0.004594 0.242820 0.006668 0.243212 0.001619 0.241907 0.003166 0.244883 0.004225 0.240554 0.022428 0.222611 0.019874 0.019651 0.022428 0.018936 0.019902 0.222611 0.017414 0.020976 0.878746 0.570929 0.878774 0.472068 0.881272 0.570928 0.891977 0.222611 0.894503 0.019956 0.894503 0.222611 0.897029 0.020976 0.897029 0.222611 0.004145 0.570929 0.004117 0.472068 0.001619 0.570928 0.001657 0.471131 0.010064 0.771131 0.927561 0.779815 0.006671 0.570930 0.403782 0.770169 0.072439 0.993884 0.072439 0.993884 0.931066 0.993883 0.068934 0.779815 0.017376 0.222610 0.881234 0.471131 0.891977 0.018936 
					</float_array>
					<technique_common>
						<accessor count="112" offset="0" source="#meshId0-tex0-array" stride="2">
							<param name="S" type="float" />
							<param name="T" type="float" />
						</accessor>
					</technique_common>
				</source>
				<vertices id="meshId0-vertices">
					<input semantic="POSITION" source="#meshId0-positions" />
				</vertices>
				<polylist count="124" material="defaultMaterial">
					<input offset="0" semantic="VERTEX" source="#meshId0-vertices" />
					<input offset="0" semantic="NORMAL" source="#meshId0-normals" />
					<input offset="0" semantic="TANGENT" source="#meshId0-tangents" />
					<input offset="0" semantic="BINORMAL" source="#meshId0-bitangents" />
					<input offset="0" semantic="TEXCOORD" source="#meshId0-tex0" set="0" />
					<vcount>
						3 3 3 3 3 3 3 3 3 3 3 3 3 3 3 3 3 3 3 3 3 3 3 3 3 3 3 3 3 3 3 3 3 3 3 3 3 3 3 3 3 3 3 3 3 3 3 3 3 3 3 3 3 3 3 3 3 3 3 3 3 3 3 3 
						3 3 3 3 3 3 3 3 3 3 3 3 3 3 3 3 3 3 3 3 3 3 3 3 3 3 3 3 3 3 3 3 3 3 3 3 3 3 3 3 3 3 3 3 3 3 3 3 3 3 3 3 3 3 3 3 3 3 3 3 
					</vcount>
					<p>
						0 1 2 3 4 5 6 7 8 9 10 11 12 13 14 15 16 17 5 18 19 19 20 21 3 20 22 23 24 25 26 27 28 29 30 31 32 33 34 35 36 37 38 36 39 14 36 40 41 42 43 44 42 45 12 42 46 47 48 49 13 48 50 51 48 52 53 54 55 56 54 57 58 54 59 60 61 62 4 61 63 64 61 65 66 67 68 69 70 71 22 67 69 20 72 73 74 75 76 77 72 74 78 79 80 81 79 82 18 79 83 35 50 47 50 14 13 38 43 40 43 14 40 53 46 44 46 58 12 51 59 56 52 58 59 84 85 86 87 88 85 11 89 9 90 91 89 4 69 65 65 71 64 66 73 77 68 20 73 78 63 60 80 4 63 76 83 81 75 18 83 92 93 94 94 95 96 10 97 98 98 99 100 86 92 84 0 101 1 3 22 4 
						6 102 7 9 103 10 12 58 13 15 104 16 5 4 18 19 18 20 3 21 20 23 105 24 26 106 27 29 107 30 32 108 33 35 39 36 38 40 36 14 37 36 41 45 42 44 46 42 12 43 42 47 50 48 13 52 48 51 49 48 53 57 54 56 59 54 58 55 54 60 63 61 4 65 61 64 62 61 66 70 67 69 67 70 22 68 67 20 75 72 74 72 75 77 73 72 78 82 79 81 83 79 18 80 79 35 37 50 50 37 14 38 41 43 43 12 14 53 55 46 46 55 58 51 52 59 52 13 58 84 87 85 87 109 88 11 90 89 90 110 91 4 22 69 65 69 71 66 68 73 68 22 20 78 80 63 80 18 4 76 75 83 75 20 18 92 111 93 94 93 95 10 103 97 98 97 99 86 111 92 
					</p>
				</polylist>
			</mesh>
		</geometry>
	</library_geometries>
	<library_visual_scenes>
		<visual_scene id="RootNode" name="RootNode">
			<node id="002_Desktop_Name_Plate" name="002_Desktop_Name_Plate">
				<matrix>100.000000 0.000000 0.000000 0.000000 0.000000 -0.000016 100.000000 0.000000 0.000000 -100.000000 -0.000016 0.000000 0.000000 0.000000 0.000000 1.000000</matrix>
				<instance_geometry url="#meshId0">
					<bind_material>
						<technique_common>
							<instance_material symbol="defaultMaterial" target="#DefaultMaterial" />
						</technique_common>
					</bind_material>
				</instance_geometry>
			</node>
		</visual_scene>
	</library_visual_scenes>
	<scene>
		<instance_visual_scene url="#RootNode" />
	</scene>
</COLLADA>
